<svg width="59" height="59" viewBox="0 0 59 59" fill="none" xmlns="http://www.w3.org/2000/svg">
<path d="M29.5 0.75C45.3782 0.75 58.25 13.6218 58.25 29.5C58.25 45.3782 45.3782 58.25 29.5 58.25C13.6218 58.25 0.75 45.3782 0.75 29.5C0.75 13.6218 13.6218 0.75 29.5 0.75Z" fill="#EEEDFC"/>
<path d="M29.5 0.75C45.3782 0.75 58.25 13.6218 58.25 29.5C58.25 45.3782 45.3782 58.25 29.5 58.25C13.6218 58.25 0.75 45.3782 0.75 29.5C0.75 13.6218 13.6218 0.75 29.5 0.75Z" stroke="#B7B3F4" stroke-width="1.5"/>
<path d="M40.5833 43.75V40.5833C40.5833 38.9036 39.916 37.2927 38.7283 36.105C37.5406 34.9173 35.9297 34.25 34.25 34.25H24.75C23.0703 34.25 21.4593 34.9173 20.2716 36.105C19.0839 37.2927 18.4166 38.9036 18.4166 40.5833V43.75" stroke="#736BEA" stroke-width="2.5" stroke-linecap="round" stroke-linejoin="round"/>
<path d="M29.5 27.9167C32.9978 27.9167 35.8333 25.0811 35.8333 21.5833C35.8333 18.0855 32.9978 15.25 29.5 15.25C26.0022 15.25 23.1666 18.0855 23.1666 21.5833C23.1666 25.0811 26.0022 27.9167 29.5 27.9167Z" stroke="#736BEA" stroke-width="2.5" stroke-linecap="round" stroke-linejoin="round"/>
<circle cx="50" cy="50" r="6.5" fill="#F4A316" stroke="white" stroke-width="2"/>
</svg>
