<svg viewBox="0 0 19 19" fill="none" xmlns="http://www.w3.org/2000/svg">
  <path
    d="M9.5 4.8C6.7 4.8 4.3 7.2 4.3 10C4.3 12.8 6.7 15.2 9.5 15.2C12.3 15.2 14.7 12.8 14.7 10C14.7 7.2 12.3 4.8 9.5 4.8ZM9.5 13.4C7.6 13.4 6.1 11.9 6.1 10C6.1 8.1 7.6 6.6 9.5 6.6C11.4 6.6 12.9 8.1 12.9 10C12.9 11.9 11.4 13.4 9.5 13.4ZM15.8 4.6C15.8 5.3 15.2 5.9 14.5 5.9C13.8 5.9 13.2 5.3 13.2 4.6C13.2 3.9 13.8 3.3 14.5 3.3C15.2 3.3 15.8 3.9 15.8 4.6ZM18.9 6C18.8 4.3 18.4 2.8 17.2 1.6C16 0.4 14.5 0 12.8 0C10.9 -0.1 7.1 -0.1 5.2 0C3.5 0 2 0.4 0.8 1.6C-0.4 2.8 -0.8 4.3 -0.9 6C-1 7.9 -1 11.1 -0.9 13C-0.8 14.7 -0.4 16.2 0.8 17.4C2 18.6 3.5 19 5.2 19.1C7.1 19.2 10.9 19.2 12.8 19.1C14.5 19 16 18.6 17.2 17.4C18.4 16.2 18.8 14.7 18.9 13C19 11.1 19 7.9 18.9 6ZM16.9 14.6C16.6 15.4 16 16 15.2 16.3C14 16.8 11 16.7 9.5 16.7C8 16.7 5 16.8 3.8 16.3C3 16 2.4 15.4 2.1 14.6C1.6 13.4 1.7 10.4 1.7 10C1.7 9.6 1.6 6.6 2.1 5.4C2.4 4.6 3 4 3.8 3.7C5 3.2 8 3.3 9.5 3.3C11 3.3 14 3.2 15.2 3.7C16 4 16.6 4.6 16.9 5.4C17.4 6.6 17.3 9.6 17.3 10C17.3 10.4 17.4 13.4 16.9 14.6Z"
    fill="currentColor"
  />
</svg>
