<svg width="460" height="416" viewBox="0 0 460 416" fill="none" xmlns="http://www.w3.org/2000/svg">
<rect width="460" height="416" rx="12" fill="white"/>
<path d="M439.3 26.2102C439.208 26.1175 439.098 26.044 438.977 25.9938C438.856 25.9436 438.726 25.9178 438.595 25.9178C438.464 25.9178 438.335 25.9436 438.214 25.9938C438.093 26.044 437.983 26.1175 437.89 26.2102L433 31.0902L428.11 26.2002C428.018 26.1076 427.908 26.0342 427.787 25.9841C427.666 25.934 427.536 25.9082 427.405 25.9082C427.274 25.9082 427.145 25.934 427.024 25.9841C426.903 26.0342 426.793 26.1076 426.7 26.2002C426.608 26.2928 426.534 26.4027 426.484 26.5237C426.434 26.6446 426.408 26.7743 426.408 26.9052C426.408 27.0362 426.434 27.1658 426.484 27.2868C426.534 27.4077 426.608 27.5176 426.7 27.6102L431.59 32.5002L426.7 37.3902C426.608 37.4828 426.534 37.5927 426.484 37.7137C426.434 37.8346 426.408 37.9643 426.408 38.0952C426.408 38.2262 426.434 38.3558 426.484 38.4768C426.534 38.5977 426.608 38.7076 426.7 38.8002C426.793 38.8928 426.903 38.9662 427.024 39.0163C427.145 39.0665 427.274 39.0922 427.405 39.0922C427.536 39.0922 427.666 39.0665 427.787 39.0163C427.908 38.9662 428.018 38.8928 428.11 38.8002L433 33.9102L437.89 38.8002C437.983 38.8928 438.093 38.9662 438.214 39.0163C438.335 39.0665 438.464 39.0922 438.595 39.0922C438.726 39.0922 438.856 39.0665 438.977 39.0163C439.098 38.9662 439.208 38.8928 439.3 38.8002C439.393 38.7076 439.466 38.5977 439.516 38.4768C439.566 38.3558 439.592 38.2262 439.592 38.0952C439.592 37.9643 439.566 37.8346 439.516 37.7137C439.466 37.5927 439.393 37.4828 439.3 37.3902L434.41 32.5002L439.3 27.6102C439.68 27.2302 439.68 26.5902 439.3 26.2102Z" fill="#8A8A8A"/>
<path d="M131.153 65.5795H126.903C126.782 64.8826 126.559 64.2652 126.233 63.7273C125.907 63.1818 125.502 62.7197 125.017 62.3409C124.532 61.9621 123.979 61.678 123.358 61.4886C122.744 61.2917 122.081 61.1932 121.369 61.1932C120.104 61.1932 118.983 61.5114 118.006 62.1477C117.028 62.7765 116.263 63.7008 115.71 64.9205C115.157 66.1326 114.881 67.6136 114.881 69.3636C114.881 71.1439 115.157 72.6439 115.71 73.8636C116.271 75.0758 117.036 75.9924 118.006 76.6136C118.983 77.2273 120.1 77.5341 121.358 77.5341C122.055 77.5341 122.706 77.4432 123.312 77.2614C123.926 77.072 124.475 76.7955 124.96 76.4318C125.453 76.0682 125.866 75.6212 126.199 75.0909C126.54 74.5606 126.775 73.9545 126.903 73.2727L131.153 73.2955C130.994 74.4015 130.65 75.4394 130.119 76.4091C129.597 77.3788 128.911 78.2348 128.062 78.9773C127.214 79.7121 126.222 80.2879 125.085 80.7045C123.949 81.1136 122.688 81.3182 121.301 81.3182C119.256 81.3182 117.43 80.8447 115.824 79.8977C114.218 78.9508 112.953 77.5833 112.028 75.7955C111.104 74.0076 110.642 71.8636 110.642 69.3636C110.642 66.8561 111.108 64.7121 112.04 62.9318C112.972 61.1439 114.241 59.7765 115.847 58.8295C117.453 57.8826 119.271 57.4091 121.301 57.4091C122.597 57.4091 123.801 57.5909 124.915 57.9545C126.028 58.3182 127.021 58.8523 127.892 59.5568C128.763 60.2538 129.479 61.1098 130.04 62.125C130.608 63.1326 130.979 64.2841 131.153 65.5795ZM134.832 81V63.5455H138.821V66.4545H139.003C139.321 65.447 139.866 64.6705 140.639 64.125C141.42 63.572 142.31 63.2955 143.31 63.2955C143.537 63.2955 143.791 63.3068 144.071 63.3295C144.359 63.3447 144.598 63.3712 144.787 63.4091V67.1932C144.613 67.1326 144.336 67.0795 143.957 67.0341C143.586 66.9811 143.226 66.9545 142.878 66.9545C142.128 66.9545 141.454 67.1174 140.855 67.4432C140.264 67.7614 139.798 68.2045 139.457 68.7727C139.116 69.3409 138.946 69.9962 138.946 70.7386V81H134.832ZM154.528 81.3409C152.778 81.3409 151.267 80.9773 149.994 80.25C148.729 79.5152 147.756 78.4773 147.074 77.1364C146.392 75.7879 146.051 74.2008 146.051 72.375C146.051 70.5795 146.392 69.0038 147.074 67.6477C147.763 66.2841 148.725 65.2235 149.96 64.4659C151.195 63.7008 152.646 63.3182 154.312 63.3182C155.388 63.3182 156.403 63.4924 157.358 63.8409C158.32 64.1818 159.169 64.7121 159.903 65.4318C160.646 66.1515 161.229 67.0682 161.653 68.1818C162.078 69.2879 162.29 70.6061 162.29 72.1364V73.3977H147.983V70.625H158.347C158.339 69.8371 158.169 69.1364 157.835 68.5227C157.502 67.9015 157.036 67.4129 156.438 67.0568C155.847 66.7008 155.157 66.5227 154.369 66.5227C153.528 66.5227 152.79 66.7273 152.153 67.1364C151.517 67.5379 151.021 68.0682 150.665 68.7273C150.316 69.3788 150.138 70.0947 150.131 70.875V73.2955C150.131 74.3106 150.316 75.1818 150.688 75.9091C151.059 76.6288 151.578 77.1818 152.244 77.5682C152.911 77.947 153.691 78.1364 154.585 78.1364C155.184 78.1364 155.725 78.053 156.21 77.8864C156.695 77.7121 157.116 77.4583 157.472 77.125C157.828 76.7917 158.097 76.3788 158.278 75.8864L162.119 76.3182C161.877 77.3333 161.415 78.2197 160.733 78.9773C160.059 79.7273 159.195 80.3106 158.142 80.7273C157.089 81.1364 155.884 81.3409 154.528 81.3409ZM170.793 81.3523C169.687 81.3523 168.69 81.1553 167.804 80.7614C166.925 80.3598 166.228 79.7689 165.713 78.9886C165.205 78.2083 164.952 77.2462 164.952 76.1023C164.952 75.1174 165.134 74.303 165.497 73.6591C165.861 73.0152 166.357 72.5 166.986 72.1136C167.615 71.7273 168.323 71.4356 169.111 71.2386C169.906 71.0341 170.728 70.8864 171.577 70.7955C172.599 70.6894 173.429 70.5947 174.065 70.5114C174.702 70.4205 175.164 70.2841 175.452 70.1023C175.747 69.9129 175.895 69.6212 175.895 69.2273V69.1591C175.895 68.303 175.641 67.6402 175.134 67.1705C174.626 66.7008 173.895 66.4659 172.94 66.4659C171.933 66.4659 171.134 66.6856 170.543 67.125C169.959 67.5644 169.565 68.0833 169.361 68.6818L165.52 68.1364C165.823 67.0758 166.323 66.1894 167.02 65.4773C167.717 64.7576 168.569 64.2197 169.577 63.8636C170.584 63.5 171.698 63.3182 172.918 63.3182C173.759 63.3182 174.596 63.4167 175.429 63.6136C176.262 63.8106 177.024 64.1364 177.713 64.5909C178.402 65.0379 178.955 65.6477 179.372 66.4205C179.796 67.1932 180.009 68.1591 180.009 69.3182V81H176.054V78.6023H175.918C175.668 79.0871 175.315 79.5417 174.861 79.9659C174.414 80.3826 173.849 80.7197 173.168 80.9773C172.493 81.2273 171.702 81.3523 170.793 81.3523ZM171.861 78.3295C172.687 78.3295 173.402 78.1667 174.009 77.8409C174.615 77.5076 175.08 77.0682 175.406 76.5227C175.74 75.9773 175.906 75.3826 175.906 74.7386V72.6818C175.777 72.7879 175.558 72.8864 175.247 72.9773C174.944 73.0682 174.603 73.1477 174.224 73.2159C173.846 73.2841 173.471 73.3447 173.099 73.3977C172.728 73.4508 172.406 73.4962 172.134 73.5341C171.52 73.6174 170.971 73.7538 170.486 73.9432C170.001 74.1326 169.618 74.3977 169.338 74.7386C169.058 75.072 168.918 75.5038 168.918 76.0341C168.918 76.7917 169.194 77.3636 169.747 77.75C170.3 78.1364 171.005 78.3295 171.861 78.3295ZM192.861 63.5455V66.7273H182.827V63.5455H192.861ZM185.304 59.3636H189.418V75.75C189.418 76.303 189.501 76.7273 189.668 77.0227C189.842 77.3106 190.069 77.5076 190.349 77.6136C190.63 77.7197 190.94 77.7727 191.281 77.7727C191.539 77.7727 191.774 77.7538 191.986 77.7159C192.205 77.678 192.372 77.6439 192.486 77.6136L193.179 80.8295C192.959 80.9053 192.645 80.9886 192.236 81.0795C191.834 81.1705 191.342 81.2235 190.759 81.2386C189.728 81.2689 188.8 81.1136 187.974 80.7727C187.149 80.4242 186.493 79.8864 186.009 79.1591C185.531 78.4318 185.296 77.5227 185.304 76.4318V59.3636ZM203.841 81.3409C202.091 81.3409 200.58 80.9773 199.307 80.25C198.042 79.5152 197.068 78.4773 196.386 77.1364C195.705 75.7879 195.364 74.2008 195.364 72.375C195.364 70.5795 195.705 69.0038 196.386 67.6477C197.076 66.2841 198.038 65.2235 199.273 64.4659C200.508 63.7008 201.958 63.3182 203.625 63.3182C204.701 63.3182 205.716 63.4924 206.67 63.8409C207.633 64.1818 208.481 64.7121 209.216 65.4318C209.958 66.1515 210.542 67.0682 210.966 68.1818C211.39 69.2879 211.602 70.6061 211.602 72.1364V73.3977H197.295V70.625H207.659C207.652 69.8371 207.481 69.1364 207.148 68.5227C206.814 67.9015 206.348 67.4129 205.75 67.0568C205.159 66.7008 204.47 66.5227 203.682 66.5227C202.841 66.5227 202.102 66.7273 201.466 67.1364C200.83 67.5379 200.333 68.0682 199.977 68.7273C199.629 69.3788 199.451 70.0947 199.443 70.875V73.2955C199.443 74.3106 199.629 75.1818 200 75.9091C200.371 76.6288 200.89 77.1818 201.557 77.5682C202.223 77.947 203.004 78.1364 203.898 78.1364C204.496 78.1364 205.038 78.053 205.523 77.8864C206.008 77.7121 206.428 77.4583 206.784 77.125C207.14 76.7917 207.409 76.3788 207.591 75.8864L211.432 76.3182C211.189 77.3333 210.727 78.2197 210.045 78.9773C209.371 79.7273 208.508 80.3106 207.455 80.7273C206.402 81.1364 205.197 81.3409 203.841 81.3409ZM226.19 81H221.69L229.884 57.7273H235.088L243.293 81H238.793L232.577 62.5H232.395L226.19 81ZM226.338 71.875H238.611V75.2614H226.338V71.875ZM253.259 81.3409C251.516 81.3409 250.02 80.9583 248.77 80.1932C247.527 79.428 246.569 78.3712 245.895 77.0227C245.228 75.6667 244.895 74.1061 244.895 72.3409C244.895 70.5682 245.236 69.0038 245.918 67.6477C246.599 66.2841 247.562 65.2235 248.804 64.4659C250.054 63.7008 251.531 63.3182 253.236 63.3182C254.652 63.3182 255.906 63.5795 256.997 64.1023C258.096 64.6174 258.971 65.3485 259.622 66.2955C260.274 67.2348 260.645 68.3333 260.736 69.5909H256.804C256.645 68.75 256.266 68.0492 255.668 67.4886C255.077 66.9205 254.285 66.6364 253.293 66.6364C252.452 66.6364 251.713 66.8636 251.077 67.3182C250.44 67.7652 249.944 68.4091 249.588 69.25C249.24 70.0909 249.065 71.0985 249.065 72.2727C249.065 73.4621 249.24 74.4848 249.588 75.3409C249.937 76.1894 250.425 76.8447 251.054 77.3068C251.69 77.7614 252.437 77.9886 253.293 77.9886C253.899 77.9886 254.44 77.875 254.918 77.6477C255.402 77.4129 255.808 77.0758 256.134 76.6364C256.459 76.197 256.683 75.6629 256.804 75.0341H260.736C260.637 76.2689 260.274 77.3636 259.645 78.3182C259.016 79.2652 258.16 80.0076 257.077 80.5455C255.993 81.0758 254.721 81.3409 253.259 81.3409ZM271.727 81.3409C269.985 81.3409 268.489 80.9583 267.239 80.1932C265.996 79.428 265.038 78.3712 264.364 77.0227C263.697 75.6667 263.364 74.1061 263.364 72.3409C263.364 70.5682 263.705 69.0038 264.386 67.6477C265.068 66.2841 266.03 65.2235 267.273 64.4659C268.523 63.7008 270 63.3182 271.705 63.3182C273.121 63.3182 274.375 63.5795 275.466 64.1023C276.564 64.6174 277.439 65.3485 278.091 66.2955C278.742 67.2348 279.114 68.3333 279.205 69.5909H275.273C275.114 68.75 274.735 68.0492 274.136 67.4886C273.545 66.9205 272.754 66.6364 271.761 66.6364C270.92 66.6364 270.182 66.8636 269.545 67.3182C268.909 67.7652 268.413 68.4091 268.057 69.25C267.708 70.0909 267.534 71.0985 267.534 72.2727C267.534 73.4621 267.708 74.4848 268.057 75.3409C268.405 76.1894 268.894 76.8447 269.523 77.3068C270.159 77.7614 270.905 77.9886 271.761 77.9886C272.367 77.9886 272.909 77.875 273.386 77.6477C273.871 77.4129 274.277 77.0758 274.602 76.6364C274.928 76.197 275.152 75.6629 275.273 75.0341H279.205C279.106 76.2689 278.742 77.3636 278.114 78.3182C277.485 79.2652 276.629 80.0076 275.545 80.5455C274.462 81.0758 273.189 81.3409 271.727 81.3409ZM290.196 81.3409C288.491 81.3409 287.014 80.9659 285.764 80.2159C284.514 79.4659 283.545 78.4167 282.855 77.0682C282.173 75.7197 281.832 74.1439 281.832 72.3409C281.832 70.5379 282.173 68.9583 282.855 67.6023C283.545 66.2462 284.514 65.1932 285.764 64.4432C287.014 63.6932 288.491 63.3182 290.196 63.3182C291.901 63.3182 293.378 63.6932 294.628 64.4432C295.878 65.1932 296.844 66.2462 297.526 67.6023C298.215 68.9583 298.56 70.5379 298.56 72.3409C298.56 74.1439 298.215 75.7197 297.526 77.0682C296.844 78.4167 295.878 79.4659 294.628 80.2159C293.378 80.9659 291.901 81.3409 290.196 81.3409ZM290.219 78.0455C291.143 78.0455 291.916 77.7917 292.537 77.2841C293.158 76.7689 293.62 76.0795 293.923 75.2159C294.234 74.3523 294.389 73.3902 294.389 72.3295C294.389 71.2614 294.234 70.2955 293.923 69.4318C293.62 68.5606 293.158 67.8674 292.537 67.3523C291.916 66.8371 291.143 66.5795 290.219 66.5795C289.272 66.5795 288.484 66.8371 287.855 67.3523C287.234 67.8674 286.768 68.5606 286.457 69.4318C286.154 70.2955 286.003 71.2614 286.003 72.3295C286.003 73.3902 286.154 74.3523 286.457 75.2159C286.768 76.0795 287.234 76.7689 287.855 77.2841C288.484 77.7917 289.272 78.0455 290.219 78.0455ZM313.176 73.6591V63.5455H317.29V81H313.301V77.8977H313.119C312.725 78.875 312.078 79.6742 311.176 80.2955C310.282 80.9167 309.18 81.2273 307.869 81.2273C306.725 81.2273 305.714 80.9735 304.835 80.4659C303.964 79.9508 303.282 79.2045 302.79 78.2273C302.297 77.2424 302.051 76.053 302.051 74.6591V63.5455H306.165V74.0227C306.165 75.1288 306.468 76.0076 307.074 76.6591C307.68 77.3106 308.475 77.6364 309.46 77.6364C310.066 77.6364 310.653 77.4886 311.222 77.1932C311.79 76.8977 312.256 76.4583 312.619 75.875C312.991 75.2841 313.176 74.5455 313.176 73.6591ZM325.634 70.7727V81H321.52V63.5455H325.452V66.5114H325.656C326.058 65.5341 326.698 64.7576 327.577 64.1818C328.463 63.6061 329.558 63.3182 330.861 63.3182C332.065 63.3182 333.115 63.5758 334.009 64.0909C334.91 64.6061 335.607 65.3523 336.099 66.3295C336.599 67.3068 336.846 68.4924 336.838 69.8864V81H332.724V70.5227C332.724 69.3561 332.421 68.4432 331.815 67.7841C331.217 67.125 330.387 66.7955 329.327 66.7955C328.607 66.7955 327.967 66.9545 327.406 67.2727C326.853 67.5833 326.418 68.0341 326.099 68.625C325.789 69.2159 325.634 69.9318 325.634 70.7727ZM349.736 63.5455V66.7273H339.702V63.5455H349.736ZM342.179 59.3636H346.293V75.75C346.293 76.303 346.376 76.7273 346.543 77.0227C346.717 77.3106 346.944 77.5076 347.224 77.6136C347.505 77.7197 347.815 77.7727 348.156 77.7727C348.414 77.7727 348.649 77.7538 348.861 77.7159C349.08 77.678 349.247 77.6439 349.361 77.6136L350.054 80.8295C349.834 80.9053 349.52 80.9886 349.111 81.0795C348.709 81.1705 348.217 81.2235 347.634 81.2386C346.603 81.2689 345.675 81.1136 344.849 80.7727C344.024 80.4242 343.368 79.8864 342.884 79.1591C342.406 78.4318 342.171 77.5227 342.179 76.4318V59.3636Z" fill="#141414"/>
<path d="M139.318 98.8182H140.849V106.037C140.849 106.69 140.72 107.248 140.462 107.712C140.206 108.176 139.847 108.531 139.383 108.776C138.919 109.018 138.375 109.139 137.752 109.139C137.179 109.139 136.663 109.035 136.206 108.826C135.752 108.617 135.392 108.314 135.127 107.916C134.865 107.515 134.734 107.028 134.734 106.455H136.261C136.261 106.736 136.325 106.98 136.455 107.185C136.587 107.391 136.768 107.552 136.996 107.668C137.228 107.78 137.494 107.837 137.792 107.837C138.117 107.837 138.392 107.769 138.617 107.633C138.846 107.494 139.02 107.29 139.139 107.021C139.259 106.753 139.318 106.425 139.318 106.037V98.8182ZM146.183 109.154C145.467 109.154 144.842 108.99 144.308 108.662C143.775 108.334 143.36 107.875 143.066 107.285C142.771 106.695 142.623 106.005 142.623 105.217C142.623 104.424 142.771 103.732 143.066 103.138C143.36 102.545 143.775 102.085 144.308 101.756C144.842 101.428 145.467 101.264 146.183 101.264C146.899 101.264 147.523 101.428 148.057 101.756C148.591 102.085 149.005 102.545 149.3 103.138C149.595 103.732 149.742 104.424 149.742 105.217C149.742 106.005 149.595 106.695 149.3 107.285C149.005 107.875 148.591 108.334 148.057 108.662C147.523 108.99 146.899 109.154 146.183 109.154ZM146.188 107.906C146.652 107.906 147.036 107.784 147.341 107.538C147.646 107.293 147.871 106.967 148.017 106.559C148.166 106.151 148.241 105.702 148.241 105.212C148.241 104.724 148.166 104.277 148.017 103.869C147.871 103.458 147.646 103.129 147.341 102.88C147.036 102.631 146.652 102.507 146.188 102.507C145.72 102.507 145.333 102.631 145.024 102.88C144.719 103.129 144.492 103.458 144.343 103.869C144.197 104.277 144.124 104.724 144.124 105.212C144.124 105.702 144.197 106.151 144.343 106.559C144.492 106.967 144.719 107.293 145.024 107.538C145.333 107.784 145.72 107.906 146.188 107.906ZM151.402 109V101.364H152.888V109H151.402ZM152.152 100.185C151.894 100.185 151.672 100.099 151.486 99.9268C151.304 99.7512 151.213 99.5424 151.213 99.3004C151.213 99.0552 151.304 98.8464 151.486 98.674C151.672 98.4983 151.894 98.4105 152.152 98.4105C152.411 98.4105 152.631 98.4983 152.814 98.674C152.999 98.8464 153.092 99.0552 153.092 99.3004C153.092 99.5424 152.999 99.7512 152.814 99.9268C152.631 100.099 152.411 100.185 152.152 100.185ZM156.374 104.466V109H154.888V101.364H156.315V102.607H156.409C156.585 102.202 156.86 101.877 157.235 101.632C157.612 101.387 158.088 101.264 158.661 101.264C159.182 101.264 159.637 101.374 160.029 101.592C160.42 101.808 160.723 102.129 160.938 102.557C161.154 102.984 161.262 103.513 161.262 104.143V109H159.775V104.322C159.775 103.768 159.631 103.336 159.343 103.024C159.054 102.709 158.658 102.552 158.154 102.552C157.81 102.552 157.503 102.626 157.235 102.776C156.969 102.925 156.759 103.143 156.603 103.432C156.451 103.717 156.374 104.062 156.374 104.466ZM169.183 109.169C168.699 109.169 168.261 109.08 167.87 108.901C167.479 108.718 167.169 108.455 166.94 108.11C166.715 107.765 166.602 107.343 166.602 106.842C166.602 106.411 166.685 106.057 166.851 105.778C167.017 105.5 167.24 105.28 167.522 105.117C167.804 104.955 168.119 104.832 168.467 104.749C168.815 104.666 169.169 104.603 169.531 104.56C169.988 104.507 170.359 104.464 170.644 104.431C170.929 104.395 171.136 104.337 171.266 104.257C171.395 104.178 171.46 104.048 171.46 103.869V103.835C171.46 103.4 171.337 103.064 171.092 102.825C170.85 102.587 170.488 102.467 170.008 102.467C169.507 102.467 169.113 102.578 168.825 102.8C168.54 103.019 168.342 103.263 168.233 103.531L166.836 103.213C167.002 102.749 167.244 102.375 167.562 102.089C167.883 101.801 168.253 101.592 168.67 101.463C169.088 101.33 169.527 101.264 169.988 101.264C170.293 101.264 170.616 101.301 170.957 101.374C171.302 101.443 171.624 101.572 171.922 101.761C172.223 101.95 172.47 102.22 172.663 102.572C172.855 102.92 172.951 103.372 172.951 103.929V109H171.499V107.956H171.44C171.344 108.148 171.199 108.337 171.007 108.523C170.815 108.708 170.568 108.862 170.266 108.985C169.965 109.108 169.603 109.169 169.183 109.169ZM169.506 107.976C169.917 107.976 170.268 107.895 170.56 107.732C170.855 107.57 171.078 107.358 171.231 107.096C171.387 106.831 171.464 106.547 171.464 106.246V105.261C171.411 105.314 171.309 105.364 171.156 105.411C171.007 105.454 170.836 105.492 170.644 105.525C170.452 105.555 170.265 105.583 170.082 105.609C169.9 105.633 169.748 105.652 169.625 105.669C169.337 105.705 169.073 105.767 168.835 105.853C168.599 105.939 168.41 106.063 168.268 106.226C168.129 106.385 168.059 106.597 168.059 106.862C168.059 107.23 168.195 107.509 168.467 107.697C168.738 107.883 169.085 107.976 169.506 107.976ZM176.417 104.466V109H174.931V101.364H176.358V102.607H176.452C176.628 102.202 176.903 101.877 177.278 101.632C177.655 101.387 178.131 101.264 178.704 101.264C179.225 101.264 179.68 101.374 180.072 101.592C180.463 101.808 180.766 102.129 180.981 102.557C181.197 102.984 181.305 103.513 181.305 104.143V109H179.818V104.322C179.818 103.768 179.674 103.336 179.385 103.024C179.097 102.709 178.701 102.552 178.197 102.552C177.853 102.552 177.546 102.626 177.278 102.776C177.012 102.925 176.802 103.143 176.646 103.432C176.494 103.717 176.417 104.062 176.417 104.466ZM186.157 109.149C185.54 109.149 184.99 108.992 184.506 108.677C184.026 108.359 183.648 107.906 183.373 107.32C183.101 106.73 182.965 106.022 182.965 105.197C182.965 104.371 183.103 103.665 183.378 103.079C183.656 102.492 184.037 102.043 184.521 101.732C185.005 101.42 185.554 101.264 186.167 101.264C186.641 101.264 187.022 101.344 187.31 101.503C187.602 101.659 187.827 101.841 187.986 102.05C188.149 102.259 188.275 102.442 188.364 102.602H188.454V98.8182H189.94V109H188.488V107.812H188.364C188.275 107.974 188.145 108.16 187.976 108.369C187.811 108.577 187.582 108.76 187.29 108.915C186.999 109.071 186.621 109.149 186.157 109.149ZM186.485 107.881C186.912 107.881 187.274 107.769 187.569 107.543C187.867 107.315 188.092 106.998 188.245 106.594C188.401 106.189 188.479 105.719 188.479 105.182C188.479 104.652 188.402 104.187 188.25 103.79C188.097 103.392 187.874 103.082 187.579 102.86C187.284 102.638 186.919 102.527 186.485 102.527C186.037 102.527 185.665 102.643 185.366 102.875C185.068 103.107 184.843 103.424 184.69 103.825C184.541 104.226 184.466 104.678 184.466 105.182C184.466 105.692 184.543 106.151 184.695 106.559C184.848 106.967 185.073 107.29 185.371 107.528C185.673 107.764 186.044 107.881 186.485 107.881ZM201.489 103.228L200.142 103.467C200.086 103.294 199.996 103.13 199.873 102.974C199.754 102.819 199.592 102.691 199.386 102.592C199.181 102.492 198.924 102.442 198.616 102.442C198.195 102.442 197.843 102.537 197.562 102.726C197.28 102.911 197.139 103.152 197.139 103.447C197.139 103.702 197.233 103.907 197.422 104.063C197.611 104.219 197.916 104.347 198.337 104.446L199.55 104.724C200.253 104.887 200.777 105.137 201.121 105.475C201.466 105.813 201.638 106.252 201.638 106.793C201.638 107.25 201.506 107.658 201.241 108.016C200.979 108.37 200.613 108.649 200.142 108.851C199.675 109.053 199.133 109.154 198.516 109.154C197.661 109.154 196.963 108.972 196.423 108.607C195.883 108.239 195.551 107.717 195.429 107.041L196.866 106.822C196.955 107.197 197.139 107.48 197.417 107.673C197.696 107.862 198.059 107.956 198.506 107.956C198.993 107.956 199.383 107.855 199.675 107.653C199.966 107.447 200.112 107.197 200.112 106.902C200.112 106.663 200.023 106.463 199.844 106.3C199.668 106.138 199.398 106.015 199.033 105.933L197.741 105.649C197.028 105.487 196.501 105.228 196.16 104.874C195.822 104.519 195.653 104.07 195.653 103.526C195.653 103.076 195.778 102.681 196.03 102.343C196.282 102.005 196.63 101.741 197.074 101.553C197.519 101.36 198.027 101.264 198.601 101.264C199.426 101.264 200.076 101.443 200.55 101.801C201.023 102.156 201.337 102.631 201.489 103.228ZM206.837 101.364V102.557H202.666V101.364H206.837ZM203.785 99.5341H205.271V106.758C205.271 107.046 205.314 107.263 205.401 107.409C205.487 107.552 205.598 107.649 205.734 107.702C205.873 107.752 206.024 107.777 206.186 107.777C206.305 107.777 206.41 107.769 206.499 107.752C206.589 107.736 206.658 107.722 206.708 107.712L206.977 108.94C206.89 108.973 206.768 109.007 206.609 109.04C206.45 109.076 206.251 109.096 206.012 109.099C205.621 109.106 205.256 109.036 204.918 108.891C204.58 108.745 204.307 108.519 204.098 108.214C203.889 107.91 203.785 107.527 203.785 107.066V99.5341ZM210.704 109.169C210.22 109.169 209.783 109.08 209.392 108.901C209 108.718 208.691 108.455 208.462 108.11C208.236 107.765 208.124 107.343 208.124 106.842C208.124 106.411 208.207 106.057 208.372 105.778C208.538 105.5 208.762 105.28 209.044 105.117C209.325 104.955 209.64 104.832 209.988 104.749C210.336 104.666 210.691 104.603 211.052 104.56C211.509 104.507 211.881 104.464 212.166 104.431C212.451 104.395 212.658 104.337 212.787 104.257C212.916 104.178 212.981 104.048 212.981 103.869V103.835C212.981 103.4 212.858 103.064 212.613 102.825C212.371 102.587 212.01 102.467 211.529 102.467C211.029 102.467 210.634 102.578 210.346 102.8C210.061 103.019 209.864 103.263 209.754 103.531L208.357 103.213C208.523 102.749 208.765 102.375 209.083 102.089C209.405 101.801 209.774 101.592 210.192 101.463C210.61 101.33 211.049 101.264 211.509 101.264C211.814 101.264 212.137 101.301 212.479 101.374C212.824 101.443 213.145 101.572 213.443 101.761C213.745 101.95 213.992 102.22 214.184 102.572C214.376 102.92 214.472 103.372 214.472 103.929V109H213.021V107.956H212.961C212.865 108.148 212.721 108.337 212.529 108.523C212.336 108.708 212.089 108.862 211.788 108.985C211.486 109.108 211.125 109.169 210.704 109.169ZM211.027 107.976C211.438 107.976 211.789 107.895 212.081 107.732C212.376 107.57 212.6 107.358 212.752 107.096C212.908 106.831 212.986 106.547 212.986 106.246V105.261C212.933 105.314 212.83 105.364 212.678 105.411C212.529 105.454 212.358 105.492 212.166 105.525C211.973 105.555 211.786 105.583 211.604 105.609C211.422 105.633 211.269 105.652 211.146 105.669C210.858 105.705 210.595 105.767 210.356 105.853C210.121 105.939 209.932 106.063 209.789 106.226C209.65 106.385 209.58 106.597 209.58 106.862C209.58 107.23 209.716 107.509 209.988 107.697C210.26 107.883 210.606 107.976 211.027 107.976ZM216.452 109V101.364H217.889V102.577H217.969C218.108 102.166 218.353 101.843 218.705 101.607C219.059 101.369 219.46 101.249 219.908 101.249C220 101.249 220.11 101.253 220.236 101.259C220.365 101.266 220.466 101.274 220.539 101.284V102.706C220.479 102.689 220.373 102.671 220.221 102.651C220.068 102.628 219.916 102.616 219.763 102.616C219.412 102.616 219.099 102.691 218.824 102.84C218.552 102.986 218.337 103.19 218.178 103.452C218.018 103.71 217.939 104.005 217.939 104.337V109H216.452ZM225.841 101.364V102.557H221.67V101.364H225.841ZM222.789 99.5341H224.275V106.758C224.275 107.046 224.318 107.263 224.404 107.409C224.491 107.552 224.602 107.649 224.738 107.702C224.877 107.752 225.028 107.777 225.19 107.777C225.309 107.777 225.414 107.769 225.503 107.752C225.593 107.736 225.662 107.722 225.712 107.712L225.98 108.94C225.894 108.973 225.772 109.007 225.613 109.04C225.453 109.076 225.255 109.096 225.016 109.099C224.625 109.106 224.26 109.036 223.922 108.891C223.584 108.745 223.311 108.519 223.102 108.214C222.893 107.91 222.789 107.527 222.789 107.066V99.5341ZM232.677 98.8182V109H231.191V98.8182H232.677ZM237.968 109.154C237.216 109.154 236.568 108.993 236.024 108.672C235.484 108.347 235.066 107.891 234.771 107.305C234.48 106.715 234.334 106.024 234.334 105.232C234.334 104.449 234.48 103.76 234.771 103.163C235.066 102.567 235.477 102.101 236.004 101.766C236.535 101.432 237.155 101.264 237.864 101.264C238.295 101.264 238.712 101.335 239.117 101.478C239.521 101.621 239.884 101.844 240.205 102.149C240.527 102.454 240.78 102.85 240.966 103.337C241.152 103.821 241.244 104.41 241.244 105.102V105.629H235.174V104.516H239.788C239.788 104.125 239.708 103.778 239.549 103.477C239.39 103.172 239.166 102.931 238.878 102.756C238.593 102.58 238.258 102.492 237.874 102.492C237.456 102.492 237.092 102.595 236.78 102.8C236.472 103.003 236.233 103.268 236.064 103.596C235.898 103.921 235.816 104.274 235.816 104.655V105.525C235.816 106.035 235.905 106.469 236.084 106.827C236.266 107.185 236.52 107.459 236.845 107.648C237.169 107.833 237.549 107.926 237.983 107.926C238.265 107.926 238.522 107.886 238.754 107.807C238.986 107.724 239.186 107.601 239.355 107.439C239.524 107.277 239.654 107.076 239.743 106.837L241.15 107.091C241.037 107.505 240.835 107.868 240.544 108.18C240.255 108.488 239.892 108.728 239.455 108.901C239.021 109.07 238.525 109.154 237.968 109.154ZM245.116 109.169C244.632 109.169 244.195 109.08 243.804 108.901C243.413 108.718 243.103 108.455 242.874 108.11C242.649 107.765 242.536 107.343 242.536 106.842C242.536 106.411 242.619 106.057 242.784 105.778C242.95 105.5 243.174 105.28 243.456 105.117C243.737 104.955 244.052 104.832 244.4 104.749C244.748 104.666 245.103 104.603 245.464 104.56C245.922 104.507 246.293 104.464 246.578 104.431C246.863 104.395 247.07 104.337 247.199 104.257C247.328 104.178 247.393 104.048 247.393 103.869V103.835C247.393 103.4 247.27 103.064 247.025 102.825C246.783 102.587 246.422 102.467 245.941 102.467C245.441 102.467 245.047 102.578 244.758 102.8C244.473 103.019 244.276 103.263 244.167 103.531L242.77 103.213C242.935 102.749 243.177 102.375 243.495 102.089C243.817 101.801 244.186 101.592 244.604 101.463C245.022 101.33 245.461 101.264 245.922 101.264C246.226 101.264 246.55 101.301 246.891 101.374C247.236 101.443 247.557 101.572 247.855 101.761C248.157 101.95 248.404 102.22 248.596 102.572C248.788 102.92 248.885 103.372 248.885 103.929V109H247.433V107.956H247.373C247.277 108.148 247.133 108.337 246.941 108.523C246.748 108.708 246.502 108.862 246.2 108.985C245.898 109.108 245.537 109.169 245.116 109.169ZM245.439 107.976C245.85 107.976 246.202 107.895 246.493 107.732C246.788 107.57 247.012 107.358 247.164 107.096C247.32 106.831 247.398 106.547 247.398 106.246V105.261C247.345 105.314 247.242 105.364 247.09 105.411C246.941 105.454 246.77 105.492 246.578 105.525C246.386 105.555 246.198 105.583 246.016 105.609C245.834 105.633 245.681 105.652 245.559 105.669C245.27 105.705 245.007 105.767 244.768 105.853C244.533 105.939 244.344 106.063 244.201 106.226C244.062 106.385 243.993 106.597 243.993 106.862C243.993 107.23 244.128 107.509 244.4 107.697C244.672 107.883 245.018 107.976 245.439 107.976ZM250.865 109V101.364H252.301V102.577H252.381C252.52 102.166 252.765 101.843 253.117 101.607C253.471 101.369 253.872 101.249 254.32 101.249C254.413 101.249 254.522 101.253 254.648 101.259C254.777 101.266 254.878 101.274 254.951 101.284V102.706C254.892 102.689 254.785 102.671 254.633 102.651C254.481 102.628 254.328 102.616 254.176 102.616C253.824 102.616 253.511 102.691 253.236 102.84C252.964 102.986 252.749 103.19 252.59 103.452C252.431 103.71 252.351 104.005 252.351 104.337V109H250.865ZM257.724 104.466V109H256.238V101.364H257.664V102.607H257.759C257.935 102.202 258.21 101.877 258.584 101.632C258.962 101.387 259.438 101.264 260.011 101.264C260.531 101.264 260.987 101.374 261.378 101.592C261.769 101.808 262.073 102.129 262.288 102.557C262.503 102.984 262.611 103.513 262.611 104.143V109H261.125V104.322C261.125 103.768 260.98 103.336 260.692 103.024C260.404 102.709 260.008 102.552 259.504 102.552C259.159 102.552 258.853 102.626 258.584 102.776C258.319 102.925 258.109 103.143 257.953 103.432C257.8 103.717 257.724 104.062 257.724 104.466ZM264.605 109V101.364H266.091V109H264.605ZM265.355 100.185C265.097 100.185 264.875 100.099 264.689 99.9268C264.507 99.7512 264.416 99.5424 264.416 99.3004C264.416 99.0552 264.507 98.8464 264.689 98.674C264.875 98.4983 265.097 98.4105 265.355 98.4105C265.614 98.4105 265.834 98.4983 266.017 98.674C266.202 98.8464 266.295 99.0552 266.295 99.3004C266.295 99.5424 266.202 99.7512 266.017 99.9268C265.834 100.099 265.614 100.185 265.355 100.185ZM269.578 104.466V109H268.091V101.364H269.518V102.607H269.612C269.788 102.202 270.063 101.877 270.438 101.632C270.816 101.387 271.291 101.264 271.865 101.264C272.385 101.264 272.841 101.374 273.232 101.592C273.623 101.808 273.926 102.129 274.142 102.557C274.357 102.984 274.465 103.513 274.465 104.143V109H272.978V104.322C272.978 103.768 272.834 103.336 272.546 103.024C272.257 102.709 271.861 102.552 271.357 102.552C271.013 102.552 270.706 102.626 270.438 102.776C270.173 102.925 269.962 103.143 269.806 103.432C269.654 103.717 269.578 104.062 269.578 104.466ZM279.66 112.023C279.053 112.023 278.531 111.943 278.094 111.784C277.66 111.625 277.305 111.415 277.03 111.153C276.755 110.891 276.549 110.604 276.414 110.293L277.691 109.766C277.781 109.911 277.9 110.066 278.049 110.228C278.202 110.394 278.407 110.535 278.666 110.651C278.927 110.767 279.264 110.825 279.675 110.825C280.238 110.825 280.704 110.687 281.072 110.412C281.44 110.14 281.624 109.706 281.624 109.109V107.608H281.529C281.44 107.77 281.311 107.951 281.142 108.15C280.976 108.349 280.747 108.521 280.455 108.667C280.164 108.813 279.784 108.886 279.317 108.886C278.714 108.886 278.17 108.745 277.686 108.463C277.206 108.178 276.825 107.759 276.543 107.205C276.264 106.648 276.125 105.964 276.125 105.152C276.125 104.34 276.263 103.644 276.538 103.064C276.816 102.484 277.197 102.04 277.681 101.732C278.165 101.42 278.714 101.264 279.327 101.264C279.801 101.264 280.184 101.344 280.475 101.503C280.767 101.659 280.994 101.841 281.156 102.05C281.322 102.259 281.45 102.442 281.539 102.602H281.649V101.364H283.105V109.169C283.105 109.825 282.953 110.364 282.648 110.785C282.343 111.206 281.93 111.517 281.41 111.719C280.893 111.922 280.31 112.023 279.66 112.023ZM279.645 107.653C280.073 107.653 280.434 107.553 280.729 107.354C281.027 107.152 281.253 106.864 281.405 106.489C281.561 106.112 281.639 105.659 281.639 105.132C281.639 104.618 281.562 104.166 281.41 103.775C281.258 103.384 281.034 103.079 280.739 102.86C280.444 102.638 280.079 102.527 279.645 102.527C279.198 102.527 278.825 102.643 278.526 102.875C278.228 103.104 278.003 103.415 277.85 103.81C277.701 104.204 277.627 104.645 277.627 105.132C277.627 105.633 277.703 106.072 277.855 106.45C278.008 106.827 278.233 107.122 278.531 107.335C278.833 107.547 279.204 107.653 279.645 107.653ZM292.369 101.364V102.557H288.197V101.364H292.369ZM289.316 99.5341H290.803V106.758C290.803 107.046 290.846 107.263 290.932 107.409C291.018 107.552 291.129 107.649 291.265 107.702C291.404 107.752 291.555 107.777 291.717 107.777C291.837 107.777 291.941 107.769 292.031 107.752C292.12 107.736 292.19 107.722 292.239 107.712L292.508 108.94C292.422 108.973 292.299 109.007 292.14 109.04C291.981 109.076 291.782 109.096 291.543 109.099C291.152 109.106 290.788 109.036 290.45 108.891C290.112 108.745 289.838 108.519 289.629 108.214C289.42 107.91 289.316 107.527 289.316 107.066V99.5341ZM297.148 109.154C296.432 109.154 295.807 108.99 295.273 108.662C294.74 108.334 294.325 107.875 294.03 107.285C293.735 106.695 293.588 106.005 293.588 105.217C293.588 104.424 293.735 103.732 294.03 103.138C294.325 102.545 294.74 102.085 295.273 101.756C295.807 101.428 296.432 101.264 297.148 101.264C297.863 101.264 298.488 101.428 299.022 101.756C299.555 102.085 299.97 102.545 300.265 103.138C300.56 103.732 300.707 104.424 300.707 105.217C300.707 106.005 300.56 106.695 300.265 107.285C299.97 107.875 299.555 108.334 299.022 108.662C298.488 108.99 297.863 109.154 297.148 109.154ZM297.153 107.906C297.617 107.906 298.001 107.784 298.306 107.538C298.611 107.293 298.836 106.967 298.982 106.559C299.131 106.151 299.206 105.702 299.206 105.212C299.206 104.724 299.131 104.277 298.982 103.869C298.836 103.458 298.611 103.129 298.306 102.88C298.001 102.631 297.617 102.507 297.153 102.507C296.685 102.507 296.297 102.631 295.989 102.88C295.684 103.129 295.457 103.458 295.308 103.869C295.162 104.277 295.089 104.724 295.089 105.212C295.089 105.702 295.162 106.151 295.308 106.559C295.457 106.967 295.684 107.293 295.989 107.538C296.297 107.784 296.685 107.906 297.153 107.906ZM305.225 109.149C304.609 109.149 304.058 108.992 303.575 108.677C303.094 108.359 302.716 107.906 302.441 107.32C302.169 106.73 302.033 106.022 302.033 105.197C302.033 104.371 302.171 103.665 302.446 103.079C302.724 102.492 303.106 102.043 303.589 101.732C304.073 101.42 304.622 101.264 305.235 101.264C305.709 101.264 306.09 101.344 306.379 101.503C306.67 101.659 306.896 101.841 307.055 102.05C307.217 102.259 307.343 102.442 307.433 102.602H307.522V98.8182H309.009V109H307.557V107.812H307.433C307.343 107.974 307.214 108.16 307.045 108.369C306.879 108.577 306.65 108.76 306.359 108.915C306.067 109.071 305.689 109.149 305.225 109.149ZM305.553 107.881C305.981 107.881 306.342 107.769 306.637 107.543C306.935 107.315 307.161 106.998 307.313 106.594C307.469 106.189 307.547 105.719 307.547 105.182C307.547 104.652 307.471 104.187 307.318 103.79C307.166 103.392 306.942 103.082 306.647 102.86C306.352 102.638 305.987 102.527 305.553 102.527C305.106 102.527 304.733 102.643 304.435 102.875C304.136 103.107 303.911 103.424 303.759 103.825C303.609 104.226 303.535 104.678 303.535 105.182C303.535 105.692 303.611 106.151 303.763 106.559C303.916 106.967 304.141 107.29 304.44 107.528C304.741 107.764 305.112 107.881 305.553 107.881ZM313.352 109.169C312.869 109.169 312.431 109.08 312.04 108.901C311.649 108.718 311.339 108.455 311.11 108.11C310.885 107.765 310.772 107.343 310.772 106.842C310.772 106.411 310.855 106.057 311.021 105.778C311.186 105.5 311.41 105.28 311.692 105.117C311.974 104.955 312.289 104.832 312.637 104.749C312.985 104.666 313.339 104.603 313.7 104.56C314.158 104.507 314.529 104.464 314.814 104.431C315.099 104.395 315.306 104.337 315.436 104.257C315.565 104.178 315.629 104.048 315.629 103.869V103.835C315.629 103.4 315.507 103.064 315.262 102.825C315.02 102.587 314.658 102.467 314.178 102.467C313.677 102.467 313.283 102.578 312.994 102.8C312.709 103.019 312.512 103.263 312.403 103.531L311.006 103.213C311.172 102.749 311.414 102.375 311.732 102.089C312.053 101.801 312.423 101.592 312.84 101.463C313.258 101.33 313.697 101.264 314.158 101.264C314.463 101.264 314.786 101.301 315.127 101.374C315.472 101.443 315.794 101.572 316.092 101.761C316.393 101.95 316.64 102.22 316.833 102.572C317.025 102.92 317.121 103.372 317.121 103.929V109H315.669V107.956H315.61C315.513 108.148 315.369 108.337 315.177 108.523C314.985 108.708 314.738 108.862 314.436 108.985C314.135 109.108 313.773 109.169 313.352 109.169ZM313.676 107.976C314.087 107.976 314.438 107.895 314.73 107.732C315.025 107.57 315.248 107.358 315.401 107.096C315.557 106.831 315.634 106.547 315.634 106.246V105.261C315.581 105.314 315.479 105.364 315.326 105.411C315.177 105.454 315.006 105.492 314.814 105.525C314.622 105.555 314.435 105.583 314.252 105.609C314.07 105.633 313.918 105.652 313.795 105.669C313.507 105.705 313.243 105.767 313.004 105.853C312.769 105.939 312.58 106.063 312.438 106.226C312.298 106.385 312.229 106.597 312.229 106.862C312.229 107.23 312.365 107.509 312.637 107.697C312.908 107.883 313.255 107.976 313.676 107.976ZM319.767 111.864C319.545 111.864 319.343 111.845 319.161 111.809C318.978 111.776 318.842 111.739 318.753 111.7L319.111 110.482C319.383 110.554 319.625 110.586 319.837 110.576C320.049 110.566 320.236 110.487 320.398 110.337C320.564 110.188 320.71 109.945 320.836 109.607L321.02 109.099L318.226 101.364H319.817L321.751 107.29H321.83L323.764 101.364H325.36L322.213 110.019C322.067 110.417 321.882 110.753 321.656 111.028C321.431 111.307 321.162 111.516 320.851 111.655C320.539 111.794 320.178 111.864 319.767 111.864Z" fill="#666666"/>
<rect x="50" y="136" width="114.667" height="8" rx="4" fill="#B7B3F4"/>
<rect x="172.667" y="136" width="114.667" height="8" rx="4" fill="#EEEDFC"/>
<rect x="295.333" y="136" width="114.667" height="8" rx="4" fill="#EEEDFC"/>
<path d="M51.1186 182V171.818H57.5021V173.141H52.6548V176.243H57.169V177.56H52.6548V180.678H57.5618V182H51.1186ZM59.4348 182V174.364H60.8617V175.607H60.9561C61.1152 175.186 61.3754 174.857 61.7367 174.622C62.098 174.384 62.5305 174.264 63.0343 174.264C63.5447 174.264 63.9722 174.384 64.3169 174.622C64.665 174.861 64.9218 175.189 65.0875 175.607H65.1671C65.3494 175.199 65.6394 174.874 66.0371 174.632C66.4348 174.387 66.9088 174.264 67.459 174.264C68.1517 174.264 68.7168 174.481 69.1543 174.915C69.5951 175.35 69.8155 176.004 69.8155 176.879V182H68.329V177.018C68.329 176.501 68.1882 176.127 67.9064 175.895C67.6247 175.663 67.2883 175.547 66.8972 175.547C66.4133 175.547 66.0371 175.696 65.7686 175.994C65.5002 176.289 65.3659 176.669 65.3659 177.133V182H63.8844V176.924C63.8844 176.51 63.7551 176.177 63.4966 175.925C63.2381 175.673 62.9017 175.547 62.4874 175.547C62.2057 175.547 61.9455 175.621 61.7069 175.771C61.4715 175.916 61.281 176.12 61.1351 176.382C60.9926 176.644 60.9213 176.947 60.9213 177.292V182H59.4348ZM74.0302 182.169C73.5463 182.169 73.1088 182.08 72.7177 181.901C72.3266 181.718 72.0167 181.455 71.788 181.11C71.5626 180.765 71.4499 180.343 71.4499 179.842C71.4499 179.411 71.5328 179.057 71.6985 178.778C71.8642 178.5 72.0879 178.28 72.3697 178.117C72.6514 177.955 72.9663 177.832 73.3143 177.749C73.6623 177.666 74.0169 177.603 74.3782 177.56C74.8356 177.507 75.2068 177.464 75.4918 177.431C75.7769 177.395 75.984 177.337 76.1133 177.257C76.2425 177.178 76.3072 177.048 76.3072 176.869V176.835C76.3072 176.4 76.1845 176.064 75.9393 175.825C75.6973 175.587 75.3361 175.467 74.8555 175.467C74.355 175.467 73.9606 175.578 73.6722 175.8C73.3872 176.019 73.19 176.263 73.0806 176.531L71.6836 176.213C71.8493 175.749 72.0913 175.375 72.4094 175.089C72.7309 174.801 73.1005 174.592 73.5181 174.463C73.9357 174.33 74.3749 174.264 74.8356 174.264C75.1405 174.264 75.4637 174.301 75.805 174.374C76.1497 174.443 76.4712 174.572 76.7695 174.761C77.0711 174.95 77.3181 175.22 77.5103 175.572C77.7025 175.92 77.7987 176.372 77.7987 176.929V182H76.3469V180.956H76.2873C76.1912 181.148 76.047 181.337 75.8548 181.523C75.6625 181.708 75.4156 181.862 75.114 181.985C74.8124 182.108 74.4511 182.169 74.0302 182.169ZM74.3533 180.976C74.7643 180.976 75.1156 180.895 75.4073 180.732C75.7023 180.57 75.926 180.358 76.0785 180.096C76.2343 179.831 76.3121 179.547 76.3121 179.246V178.261C76.2591 178.314 76.1564 178.364 76.0039 178.411C75.8548 178.454 75.6841 178.492 75.4918 178.525C75.2996 178.555 75.1123 178.583 74.93 178.609C74.7478 178.633 74.5953 178.652 74.4727 178.669C74.1843 178.705 73.9208 178.767 73.6822 178.853C73.4469 178.939 73.2579 179.063 73.1154 179.226C72.9762 179.385 72.9066 179.597 72.9066 179.862C72.9066 180.23 73.0425 180.509 73.3143 180.697C73.5861 180.883 73.9324 180.976 74.3533 180.976ZM79.7786 182V174.364H81.2651V182H79.7786ZM80.5293 173.185C80.2708 173.185 80.0487 173.099 79.8631 172.927C79.6808 172.751 79.5897 172.542 79.5897 172.3C79.5897 172.055 79.6808 171.846 79.8631 171.674C80.0487 171.498 80.2708 171.411 80.5293 171.411C80.7878 171.411 81.0082 171.498 81.1905 171.674C81.3761 171.846 81.4689 172.055 81.4689 172.3C81.4689 172.542 81.3761 172.751 81.1905 172.927C81.0082 173.099 80.7878 173.185 80.5293 173.185ZM84.7514 171.818V182H83.2649V171.818H84.7514ZM88.8642 177.545L88.9586 175.447L87.1887 176.586L86.6468 175.641L88.5261 174.682L86.6468 173.722L87.1887 172.778L88.9586 173.916L88.8642 171.818H89.943L89.8485 173.916L91.6184 172.778L92.1603 173.722L90.2811 174.682L92.1603 175.641L91.6184 176.586L89.8485 175.447L89.943 177.545H88.8642Z" fill="#3D3D3D"/>
<rect x="50.75" y="193.75" width="358.5" height="46.5" rx="7.25" stroke="#D1D1D1" stroke-width="1.5"/>
<path d="M64.9389 221.864C64.7169 221.864 64.5147 221.845 64.3324 221.809C64.1501 221.776 64.0142 221.739 63.9247 221.7L64.2827 220.482C64.5545 220.554 64.7964 220.586 65.0085 220.576C65.2206 220.566 65.4079 220.487 65.5703 220.337C65.736 220.188 65.8819 219.945 66.0078 219.607L66.1918 219.099L63.3977 211.364H64.9886L66.9226 217.29H67.0021L68.9361 211.364H70.532L67.3849 220.019C67.2391 220.417 67.0535 220.753 66.8281 221.028C66.6027 221.307 66.3343 221.516 66.0227 221.655C65.7112 221.794 65.3499 221.864 64.9389 221.864ZM74.8858 219.154C74.1699 219.154 73.5452 218.99 73.0115 218.662C72.4779 218.334 72.0636 217.875 71.7686 217.285C71.4737 216.695 71.3262 216.005 71.3262 215.217C71.3262 214.424 71.4737 213.732 71.7686 213.138C72.0636 212.545 72.4779 212.085 73.0115 211.756C73.5452 211.428 74.1699 211.264 74.8858 211.264C75.6017 211.264 76.2265 211.428 76.7601 211.756C77.2937 212.085 77.708 212.545 78.003 213.138C78.298 213.732 78.4455 214.424 78.4455 215.217C78.4455 216.005 78.298 216.695 78.003 217.285C77.708 217.875 77.2937 218.334 76.7601 218.662C76.2265 218.99 75.6017 219.154 74.8858 219.154ZM74.8908 217.906C75.3548 217.906 75.7393 217.784 76.0442 217.538C76.3491 217.293 76.5745 216.967 76.7203 216.559C76.8695 216.151 76.9441 215.702 76.9441 215.212C76.9441 214.724 76.8695 214.277 76.7203 213.869C76.5745 213.458 76.3491 213.129 76.0442 212.88C75.7393 212.631 75.3548 212.507 74.8908 212.507C74.4235 212.507 74.0357 212.631 73.7275 212.88C73.4225 213.129 73.1955 213.458 73.0463 213.869C72.9005 214.277 72.8276 214.724 72.8276 215.212C72.8276 215.702 72.9005 216.151 73.0463 216.559C73.1955 216.967 73.4225 217.293 73.7275 217.538C74.0357 217.784 74.4235 217.906 74.8908 217.906ZM84.9421 215.833V211.364H86.4336V219H84.9719V217.678H84.8924C84.7167 218.085 84.435 218.425 84.0472 218.697C83.6628 218.965 83.1838 219.099 82.6104 219.099C82.1199 219.099 81.6857 218.992 81.3079 218.776C80.9334 218.558 80.6384 218.234 80.4229 217.807C80.2108 217.379 80.1048 216.851 80.1048 216.221V211.364H81.5913V216.042C81.5913 216.562 81.7354 216.977 82.0238 217.285C82.3121 217.593 82.6867 217.747 83.1474 217.747C83.4258 217.747 83.7025 217.678 83.9776 217.538C84.256 217.399 84.4864 217.189 84.6687 216.907C84.8543 216.625 84.9454 216.267 84.9421 215.833ZM94.5609 221.769C93.5334 221.769 92.622 221.628 91.8265 221.347C91.0344 221.068 90.3665 220.657 89.823 220.114C89.2794 219.573 88.8668 218.911 88.585 218.125C88.3033 217.339 88.1625 216.443 88.1625 215.435C88.1625 214.454 88.305 213.573 88.59 212.79C88.8751 212.008 89.2894 211.342 89.8329 210.792C90.3798 210.238 91.0443 209.816 91.8265 209.524C92.6087 209.232 93.497 209.087 94.4913 209.087C95.4425 209.087 96.2811 209.236 97.0069 209.534C97.7328 209.832 98.3426 210.242 98.8365 210.762C99.3336 211.282 99.7082 211.879 99.96 212.552C100.212 213.225 100.338 213.936 100.338 214.685C100.338 215.208 100.305 215.72 100.238 216.221C100.172 216.718 100.05 217.169 99.8706 217.573C99.6949 217.974 99.4397 218.296 99.1049 218.538C98.7735 218.776 98.3426 218.901 97.8123 218.911C97.5306 218.92 97.2572 218.887 96.992 218.811C96.7269 218.735 96.5015 218.612 96.3159 218.443C96.1303 218.271 96.0176 218.052 95.9778 217.787H95.9181C95.8386 217.982 95.706 218.165 95.5204 218.334C95.3348 218.5 95.0978 218.632 94.8095 218.732C94.5244 218.828 94.193 218.867 93.8152 218.851C93.3975 218.834 93.0214 218.74 92.6866 218.567C92.3519 218.395 92.0652 218.156 91.8265 217.852C91.5912 217.547 91.4106 217.185 91.2846 216.768C91.1587 216.35 91.0957 215.886 91.0957 215.376C91.0957 214.885 91.167 214.446 91.3095 214.058C91.452 213.667 91.6459 213.331 91.8912 213.049C92.1397 212.764 92.4248 212.539 92.7463 212.373C93.0678 212.207 93.4075 212.103 93.7654 212.06C94.1135 212.02 94.4333 212.03 94.725 212.089C95.0166 212.149 95.2586 212.24 95.4508 212.363C95.6464 212.486 95.769 212.62 95.8187 212.766H95.8833V212.209H97.1064V216.822C97.1064 217.084 97.1743 217.306 97.3102 217.489C97.4494 217.671 97.6466 217.762 97.9018 217.762C98.2034 217.762 98.4387 217.651 98.6078 217.429C98.7801 217.207 98.9011 216.866 98.9707 216.405C99.0436 215.944 99.0801 215.354 99.0801 214.635C99.0801 214.131 99.0121 213.657 98.8762 213.213C98.7437 212.766 98.5465 212.361 98.2846 212C98.0261 211.635 97.7079 211.322 97.3301 211.06C96.9522 210.799 96.5214 210.596 96.0375 210.454C95.5569 210.311 95.0249 210.24 94.4416 210.24C93.6494 210.24 92.9451 210.363 92.3287 210.608C91.7122 210.85 91.1918 211.2 90.7676 211.657C90.3467 212.114 90.0268 212.663 89.8081 213.303C89.5926 213.939 89.4849 214.653 89.4849 215.445C89.4849 216.271 89.5959 217.003 89.818 217.643C90.0401 218.279 90.3682 218.816 90.8024 219.254C91.2366 219.691 91.7735 220.022 92.4132 220.248C93.0529 220.477 93.7903 220.591 94.6255 220.591C94.9967 220.591 95.3613 220.558 95.7193 220.491C96.0772 220.429 96.3954 220.356 96.6738 220.273C96.9556 220.193 97.166 220.129 97.3052 220.079L97.6532 221.168C97.4477 221.264 97.1743 221.358 96.8329 221.451C96.4949 221.544 96.127 221.62 95.7292 221.68C95.3348 221.739 94.9454 221.769 94.5609 221.769ZM94.1035 217.633C94.5344 217.633 94.8807 217.547 95.1426 217.374C95.4077 217.202 95.5983 216.945 95.7143 216.604C95.8336 216.259 95.8933 215.828 95.8933 215.311C95.89 214.807 95.8253 214.406 95.6994 214.108C95.5768 213.806 95.3845 213.591 95.1227 213.462C94.8642 213.329 94.5311 213.263 94.1234 213.263C93.7489 213.263 93.429 213.354 93.1639 213.536C92.902 213.719 92.7015 213.965 92.5623 214.277C92.4264 214.589 92.3568 214.935 92.3535 215.316C92.3568 215.717 92.4132 216.095 92.5225 216.45C92.6352 216.801 92.8175 217.086 93.0694 217.305C93.3246 217.523 93.6693 217.633 94.1035 217.633ZM105.271 219.154C104.519 219.154 103.871 218.993 103.327 218.672C102.787 218.347 102.369 217.891 102.074 217.305C101.783 216.715 101.637 216.024 101.637 215.232C101.637 214.449 101.783 213.76 102.074 213.163C102.369 212.567 102.78 212.101 103.307 211.766C103.837 211.432 104.457 211.264 105.167 211.264C105.597 211.264 106.015 211.335 106.419 211.478C106.824 211.621 107.187 211.844 107.508 212.149C107.83 212.454 108.083 212.85 108.269 213.337C108.454 213.821 108.547 214.41 108.547 215.102V215.629H102.477V214.516H107.091C107.091 214.125 107.011 213.778 106.852 213.477C106.693 213.172 106.469 212.931 106.181 212.756C105.896 212.58 105.561 212.492 105.176 212.492C104.759 212.492 104.394 212.595 104.083 212.8C103.775 213.003 103.536 213.268 103.367 213.596C103.201 213.921 103.118 214.274 103.118 214.655V215.525C103.118 216.035 103.208 216.469 103.387 216.827C103.569 217.185 103.823 217.459 104.147 217.648C104.472 217.833 104.852 217.926 105.286 217.926C105.568 217.926 105.824 217.886 106.056 217.807C106.288 217.724 106.489 217.601 106.658 217.439C106.827 217.277 106.956 217.076 107.046 216.837L108.453 217.091C108.34 217.505 108.138 217.868 107.846 218.18C107.558 218.488 107.195 218.728 106.757 218.901C106.323 219.07 105.828 219.154 105.271 219.154ZM111.192 211.364L112.877 214.337L114.578 211.364H116.203L113.822 215.182L116.223 219H114.598L112.877 216.146L111.162 219H109.532L111.908 215.182L109.561 211.364H111.192ZM119.938 219.169C119.454 219.169 119.017 219.08 118.626 218.901C118.235 218.718 117.925 218.455 117.696 218.11C117.471 217.765 117.358 217.343 117.358 216.842C117.358 216.411 117.441 216.057 117.607 215.778C117.772 215.5 117.996 215.28 118.278 215.117C118.56 214.955 118.874 214.832 119.222 214.749C119.57 214.666 119.925 214.603 120.286 214.56C120.744 214.507 121.115 214.464 121.4 214.431C121.685 214.395 121.892 214.337 122.021 214.257C122.151 214.178 122.215 214.048 122.215 213.869V213.835C122.215 213.4 122.093 213.064 121.847 212.825C121.606 212.587 121.244 212.467 120.764 212.467C120.263 212.467 119.869 212.578 119.58 212.8C119.295 213.019 119.098 213.263 118.989 213.531L117.592 213.213C117.758 212.749 117.999 212.375 118.318 212.089C118.639 211.801 119.009 211.592 119.426 211.463C119.844 211.33 120.283 211.264 120.744 211.264C121.049 211.264 121.372 211.301 121.713 211.374C122.058 211.443 122.379 211.572 122.678 211.761C122.979 211.95 123.226 212.22 123.419 212.572C123.611 212.92 123.707 213.372 123.707 213.929V219H122.255V217.956H122.195C122.099 218.148 121.955 218.337 121.763 218.523C121.571 218.708 121.324 218.862 121.022 218.985C120.721 219.108 120.359 219.169 119.938 219.169ZM120.262 217.976C120.673 217.976 121.024 217.895 121.316 217.732C121.61 217.57 121.834 217.358 121.987 217.096C122.142 216.831 122.22 216.547 122.22 216.246V215.261C122.167 215.314 122.065 215.364 121.912 215.411C121.763 215.454 121.592 215.492 121.4 215.525C121.208 215.555 121.021 215.583 120.838 215.609C120.656 215.633 120.503 215.652 120.381 215.669C120.093 215.705 119.829 215.767 119.59 215.853C119.355 215.939 119.166 216.063 119.024 216.226C118.884 216.385 118.815 216.597 118.815 216.862C118.815 217.23 118.951 217.509 119.222 217.697C119.494 217.883 119.841 217.976 120.262 217.976ZM125.687 219V211.364H127.114V212.607H127.208C127.367 212.186 127.627 211.857 127.989 211.622C128.35 211.384 128.782 211.264 129.286 211.264C129.797 211.264 130.224 211.384 130.569 211.622C130.917 211.861 131.174 212.189 131.339 212.607H131.419C131.601 212.199 131.891 211.874 132.289 211.632C132.687 211.387 133.161 211.264 133.711 211.264C134.404 211.264 134.969 211.481 135.406 211.915C135.847 212.35 136.067 213.004 136.067 213.879V219H134.581V214.018C134.581 213.501 134.44 213.127 134.158 212.895C133.877 212.663 133.54 212.547 133.149 212.547C132.665 212.547 132.289 212.696 132.021 212.994C131.752 213.289 131.618 213.669 131.618 214.133V219H130.136V213.924C130.136 213.51 130.007 213.177 129.749 212.925C129.49 212.673 129.154 212.547 128.739 212.547C128.458 212.547 128.197 212.621 127.959 212.771C127.723 212.916 127.533 213.12 127.387 213.382C127.245 213.644 127.173 213.947 127.173 214.292V219H125.687ZM138.06 221.864V211.364H139.512V212.602H139.636C139.722 212.442 139.846 212.259 140.009 212.05C140.171 211.841 140.396 211.659 140.685 211.503C140.973 211.344 141.354 211.264 141.828 211.264C142.445 211.264 142.995 211.42 143.479 211.732C143.963 212.043 144.342 212.492 144.617 213.079C144.896 213.665 145.035 214.371 145.035 215.197C145.035 216.022 144.897 216.73 144.622 217.32C144.347 217.906 143.969 218.359 143.489 218.677C143.008 218.992 142.46 219.149 141.843 219.149C141.379 219.149 141 219.071 140.705 218.915C140.413 218.76 140.184 218.577 140.019 218.369C139.853 218.16 139.725 217.974 139.636 217.812H139.546V221.864H138.06ZM139.517 215.182C139.517 215.719 139.594 216.189 139.75 216.594C139.906 216.998 140.131 217.315 140.426 217.543C140.721 217.769 141.083 217.881 141.51 217.881C141.954 217.881 142.325 217.764 142.624 217.528C142.922 217.29 143.147 216.967 143.3 216.559C143.456 216.151 143.534 215.692 143.534 215.182C143.534 214.678 143.457 214.226 143.305 213.825C143.156 213.424 142.93 213.107 142.629 212.875C142.33 212.643 141.958 212.527 141.51 212.527C141.079 212.527 140.715 212.638 140.416 212.86C140.121 213.082 139.898 213.392 139.745 213.79C139.593 214.187 139.517 214.652 139.517 215.182ZM148.187 208.818V219H146.7V208.818H148.187ZM153.478 219.154C152.726 219.154 152.078 218.993 151.534 218.672C150.994 218.347 150.576 217.891 150.281 217.305C149.99 216.715 149.844 216.024 149.844 215.232C149.844 214.449 149.99 213.76 150.281 213.163C150.576 212.567 150.987 212.101 151.514 211.766C152.045 211.432 152.664 211.264 153.374 211.264C153.804 211.264 154.222 211.335 154.626 211.478C155.031 211.621 155.394 211.844 155.715 212.149C156.037 212.454 156.29 212.85 156.476 213.337C156.661 213.821 156.754 214.41 156.754 215.102V215.629H150.684V214.516H155.298C155.298 214.125 155.218 213.778 155.059 213.477C154.9 213.172 154.676 212.931 154.388 212.756C154.103 212.58 153.768 212.492 153.384 212.492C152.966 212.492 152.601 212.595 152.29 212.8C151.982 213.003 151.743 213.268 151.574 213.596C151.408 213.921 151.325 214.274 151.325 214.655V215.525C151.325 216.035 151.415 216.469 151.594 216.827C151.776 217.185 152.03 217.459 152.354 217.648C152.679 217.833 153.059 217.926 153.493 217.926C153.775 217.926 154.031 217.886 154.263 217.807C154.496 217.724 154.696 217.601 154.865 217.439C155.034 217.277 155.163 217.076 155.253 216.837L156.66 217.091C156.547 217.505 156.345 217.868 156.053 218.18C155.765 218.488 155.402 218.728 154.964 218.901C154.53 219.07 154.035 219.154 153.478 219.154ZM159.383 219.094C159.111 219.094 158.878 218.998 158.682 218.806C158.486 218.611 158.389 218.375 158.389 218.1C158.389 217.828 158.486 217.596 158.682 217.404C158.878 217.209 159.111 217.111 159.383 217.111C159.655 217.111 159.888 217.209 160.084 217.404C160.28 217.596 160.377 217.828 160.377 218.1C160.377 218.282 160.331 218.45 160.238 218.602C160.149 218.751 160.029 218.871 159.88 218.96C159.731 219.05 159.565 219.094 159.383 219.094ZM165.585 219.154C164.846 219.154 164.21 218.987 163.676 218.652C163.146 218.314 162.738 217.848 162.453 217.255C162.168 216.662 162.025 215.982 162.025 215.217C162.025 214.441 162.171 213.757 162.463 213.163C162.755 212.567 163.166 212.101 163.696 211.766C164.226 211.432 164.851 211.264 165.57 211.264C166.15 211.264 166.667 211.372 167.121 211.587C167.575 211.799 167.942 212.098 168.22 212.482C168.502 212.867 168.669 213.316 168.722 213.83H167.275C167.196 213.472 167.014 213.163 166.729 212.905C166.447 212.646 166.069 212.517 165.595 212.517C165.181 212.517 164.818 212.626 164.506 212.845C164.198 213.061 163.958 213.369 163.785 213.77C163.613 214.168 163.527 214.638 163.527 215.182C163.527 215.739 163.611 216.219 163.78 216.624C163.949 217.028 164.188 217.341 164.496 217.563C164.808 217.785 165.174 217.896 165.595 217.896C165.877 217.896 166.132 217.845 166.361 217.742C166.593 217.636 166.787 217.485 166.942 217.29C167.101 217.094 167.212 216.859 167.275 216.584H168.722C168.669 217.078 168.508 217.518 168.24 217.906C167.971 218.294 167.612 218.599 167.161 218.821C166.714 219.043 166.188 219.154 165.585 219.154ZM173.528 219.154C172.813 219.154 172.188 218.99 171.654 218.662C171.121 218.334 170.706 217.875 170.411 217.285C170.116 216.695 169.969 216.005 169.969 215.217C169.969 214.424 170.116 213.732 170.411 213.138C170.706 212.545 171.121 212.085 171.654 211.756C172.188 211.428 172.813 211.264 173.528 211.264C174.244 211.264 174.869 211.428 175.403 211.756C175.936 212.085 176.351 212.545 176.646 213.138C176.941 213.732 177.088 214.424 177.088 215.217C177.088 216.005 176.941 216.695 176.646 217.285C176.351 217.875 175.936 218.334 175.403 218.662C174.869 218.99 174.244 219.154 173.528 219.154ZM173.533 217.906C173.997 217.906 174.382 217.784 174.687 217.538C174.992 217.293 175.217 216.967 175.363 216.559C175.512 216.151 175.587 215.702 175.587 215.212C175.587 214.724 175.512 214.277 175.363 213.869C175.217 213.458 174.992 213.129 174.687 212.88C174.382 212.631 173.997 212.507 173.533 212.507C173.066 212.507 172.678 212.631 172.37 212.88C172.065 213.129 171.838 213.458 171.689 213.869C171.543 214.277 171.47 214.724 171.47 215.212C171.47 215.702 171.543 216.151 171.689 216.559C171.838 216.967 172.065 217.293 172.37 217.538C172.678 217.784 173.066 217.906 173.533 217.906ZM178.747 219V211.364H180.174V212.607H180.269C180.428 212.186 180.688 211.857 181.049 211.622C181.41 211.384 181.843 211.264 182.347 211.264C182.857 211.264 183.285 211.384 183.629 211.622C183.977 211.861 184.234 212.189 184.4 212.607H184.48C184.662 212.199 184.952 211.874 185.35 211.632C185.747 211.387 186.221 211.264 186.771 211.264C187.464 211.264 188.029 211.481 188.467 211.915C188.908 212.35 189.128 213.004 189.128 213.879V219H187.642V214.018C187.642 213.501 187.501 213.127 187.219 212.895C186.937 212.663 186.601 212.547 186.21 212.547C185.726 212.547 185.35 212.696 185.081 212.994C184.813 213.289 184.678 213.669 184.678 214.133V219H183.197V213.924C183.197 213.51 183.068 213.177 182.809 212.925C182.551 212.673 182.214 212.547 181.8 212.547C181.518 212.547 181.258 212.621 181.019 212.771C180.784 212.916 180.593 213.12 180.448 213.382C180.305 213.644 180.234 213.947 180.234 214.292V219H178.747Z" fill="#8A8A8A"/>
<rect x="50" y="257" width="360" height="47" rx="8" fill="#4F46E5"/>
<path d="M222.717 274.864V286.5H221.104L215.189 277.966H215.081V286.5H213.325V274.864H214.95L220.871 283.409H220.979V274.864H222.717ZM228.903 286.676C228.044 286.676 227.303 286.492 226.682 286.125C226.064 285.754 225.587 285.233 225.25 284.562C224.917 283.888 224.75 283.098 224.75 282.193C224.75 281.299 224.917 280.511 225.25 279.83C225.587 279.148 226.057 278.616 226.659 278.233C227.265 277.85 227.973 277.659 228.784 277.659C229.277 277.659 229.754 277.741 230.216 277.903C230.678 278.066 231.093 278.322 231.46 278.67C231.828 279.019 232.117 279.472 232.33 280.028C232.542 280.581 232.648 281.254 232.648 282.045V282.648H225.71V281.375H230.983C230.983 280.928 230.892 280.532 230.71 280.188C230.528 279.839 230.273 279.564 229.943 279.364C229.617 279.163 229.235 279.062 228.795 279.062C228.318 279.062 227.902 279.18 227.545 279.415C227.193 279.646 226.92 279.949 226.727 280.324C226.538 280.695 226.443 281.098 226.443 281.534V282.528C226.443 283.112 226.545 283.608 226.75 284.017C226.958 284.426 227.248 284.739 227.619 284.955C227.991 285.167 228.424 285.273 228.92 285.273C229.242 285.273 229.536 285.227 229.801 285.136C230.066 285.042 230.295 284.902 230.489 284.716C230.682 284.53 230.83 284.301 230.932 284.028L232.54 284.318C232.411 284.792 232.18 285.206 231.847 285.562C231.517 285.915 231.102 286.189 230.602 286.386C230.106 286.58 229.54 286.676 228.903 286.676ZM235.67 277.773L237.597 281.17L239.54 277.773H241.398L238.676 282.136L241.42 286.5H239.562L237.597 283.239L235.636 286.5H233.773L236.489 282.136L233.807 277.773H235.67ZM247.216 277.773V279.136H242.449V277.773H247.216ZM243.727 275.682H245.426V283.938C245.426 284.267 245.475 284.515 245.574 284.682C245.672 284.845 245.799 284.956 245.955 285.017C246.114 285.074 246.286 285.102 246.472 285.102C246.608 285.102 246.727 285.093 246.83 285.074C246.932 285.055 247.011 285.04 247.068 285.028L247.375 286.432C247.277 286.47 247.136 286.508 246.955 286.545C246.773 286.587 246.545 286.61 246.273 286.614C245.826 286.621 245.409 286.542 245.023 286.375C244.636 286.208 244.324 285.951 244.085 285.602C243.847 285.254 243.727 284.816 243.727 284.29V275.682Z" fill="white"/>
<mask id="path-13-inside-1_1237_9895" fill="white">
<path d="M70 329.193H390V329.716H70V329.193Z"/>
</mask>
<path d="M70 329.193V330.193H390V329.193V328.193H70V329.193Z" fill="#D1D1D1" mask="url(#path-13-inside-1_1237_9895)"/>
<rect width="28" height="21" transform="translate(216 320)" fill="white"/>
<path d="M227.216 332.654C226.5 332.654 225.875 332.49 225.342 332.162C224.808 331.834 224.394 331.375 224.099 330.785C223.804 330.195 223.656 329.505 223.656 328.717C223.656 327.924 223.804 327.232 224.099 326.638C224.394 326.045 224.808 325.585 225.342 325.256C225.875 324.928 226.5 324.764 227.216 324.764C227.932 324.764 228.557 324.928 229.09 325.256C229.624 325.585 230.038 326.045 230.333 326.638C230.628 327.232 230.776 327.924 230.776 328.717C230.776 329.505 230.628 330.195 230.333 330.785C230.038 331.375 229.624 331.834 229.09 332.162C228.557 332.49 227.932 332.654 227.216 332.654ZM227.221 331.406C227.685 331.406 228.069 331.284 228.374 331.038C228.679 330.793 228.905 330.467 229.05 330.059C229.2 329.651 229.274 329.202 229.274 328.712C229.274 328.224 229.2 327.777 229.05 327.369C228.905 326.958 228.679 326.629 228.374 326.38C228.069 326.131 227.685 326.007 227.221 326.007C226.754 326.007 226.366 326.131 226.058 326.38C225.753 326.629 225.526 326.958 225.376 327.369C225.231 327.777 225.158 328.224 225.158 328.712C225.158 329.202 225.231 329.651 225.376 330.059C225.526 330.467 225.753 330.793 226.058 331.038C226.366 331.284 226.754 331.406 227.221 331.406ZM223.999 349.5V341.864H225.436V343.077H225.516C225.655 342.666 225.9 342.343 226.251 342.107C226.606 341.869 227.007 341.749 227.455 341.749C227.547 341.749 227.657 341.753 227.783 341.759C227.912 341.766 228.013 341.774 228.086 341.784V343.206C228.026 343.189 227.92 343.171 227.768 343.151C227.615 343.128 227.463 343.116 227.31 343.116C226.959 343.116 226.646 343.191 226.371 343.34C226.099 343.486 225.884 343.69 225.724 343.952C225.565 344.21 225.486 344.505 225.486 344.837V349.5H223.999Z" fill="#8A8A8A"/>
<path d="M134.007 363H132.899L136.103 354.273H137.194L140.399 363H139.291L136.683 355.653H136.615L134.007 363ZM134.416 359.591H138.882V360.528H134.416V359.591ZM142.627 354.273V363H141.622V354.273H142.627ZM144.469 363V356.455H145.441V357.443H145.509C145.628 357.119 145.844 356.857 146.157 356.655C146.469 356.453 146.822 356.352 147.214 356.352C147.287 356.352 147.38 356.354 147.491 356.357C147.601 356.359 147.685 356.364 147.742 356.369V357.392C147.708 357.384 147.63 357.371 147.508 357.354C147.388 357.334 147.262 357.324 147.128 357.324C146.81 357.324 146.526 357.391 146.276 357.524C146.029 357.655 145.833 357.837 145.688 358.07C145.546 358.3 145.475 358.562 145.475 358.858V363H144.469ZM151.479 363.136C150.849 363.136 150.305 362.997 149.847 362.719C149.393 362.438 149.042 362.045 148.795 361.543C148.55 361.037 148.428 360.449 148.428 359.778C148.428 359.108 148.55 358.517 148.795 358.006C149.042 357.491 149.385 357.091 149.826 356.804C150.269 356.514 150.786 356.369 151.377 356.369C151.718 356.369 152.055 356.426 152.387 356.54C152.719 356.653 153.022 356.838 153.295 357.094C153.567 357.347 153.785 357.682 153.947 358.099C154.108 358.517 154.189 359.031 154.189 359.642V360.068H149.144V359.199H153.167C153.167 358.83 153.093 358.5 152.945 358.21C152.8 357.92 152.593 357.692 152.323 357.524C152.056 357.357 151.741 357.273 151.377 357.273C150.976 357.273 150.63 357.372 150.337 357.571C150.047 357.767 149.824 358.023 149.668 358.338C149.512 358.653 149.434 358.991 149.434 359.352V359.932C149.434 360.426 149.519 360.845 149.689 361.189C149.863 361.53 150.103 361.79 150.41 361.969C150.716 362.145 151.073 362.233 151.479 362.233C151.743 362.233 151.982 362.196 152.195 362.122C152.411 362.045 152.597 361.932 152.753 361.781C152.91 361.628 153.03 361.437 153.116 361.21L154.087 361.483C153.985 361.812 153.813 362.102 153.572 362.352C153.33 362.599 153.032 362.793 152.677 362.932C152.322 363.068 151.922 363.136 151.479 363.136ZM157.645 363.153C157.231 363.153 156.854 363.075 156.516 362.919C156.178 362.76 155.91 362.531 155.711 362.233C155.512 361.932 155.412 361.568 155.412 361.142C155.412 360.767 155.486 360.463 155.634 360.23C155.782 359.994 155.979 359.81 156.226 359.676C156.474 359.543 156.746 359.443 157.045 359.378C157.346 359.31 157.648 359.256 157.952 359.216C158.35 359.165 158.672 359.126 158.92 359.101C159.17 359.072 159.351 359.026 159.465 358.96C159.581 358.895 159.64 358.781 159.64 358.619V358.585C159.64 358.165 159.525 357.838 159.295 357.605C159.067 357.372 158.722 357.256 158.259 357.256C157.779 357.256 157.403 357.361 157.13 357.571C156.857 357.781 156.665 358.006 156.555 358.244L155.6 357.903C155.77 357.506 155.998 357.196 156.282 356.974C156.569 356.75 156.881 356.594 157.219 356.506C157.56 356.415 157.895 356.369 158.225 356.369C158.435 356.369 158.677 356.395 158.949 356.446C159.225 356.494 159.491 356.595 159.746 356.749C160.005 356.902 160.219 357.134 160.39 357.443C160.56 357.753 160.645 358.168 160.645 358.688V363H159.64V362.114H159.589C159.52 362.256 159.407 362.408 159.248 362.57C159.089 362.732 158.877 362.869 158.613 362.983C158.349 363.097 158.026 363.153 157.645 363.153ZM157.799 362.25C158.197 362.25 158.532 362.172 158.805 362.016C159.08 361.859 159.287 361.658 159.427 361.411C159.569 361.163 159.64 360.903 159.64 360.631V359.71C159.597 359.761 159.503 359.808 159.358 359.851C159.216 359.891 159.052 359.926 158.864 359.957C158.68 359.986 158.499 360.011 158.323 360.034C158.15 360.054 158.009 360.071 157.901 360.085C157.64 360.119 157.395 360.175 157.168 360.251C156.944 360.325 156.762 360.437 156.623 360.588C156.486 360.736 156.418 360.937 156.418 361.193C156.418 361.543 156.547 361.807 156.806 361.986C157.067 362.162 157.398 362.25 157.799 362.25ZM164.953 363.136C164.407 363.136 163.926 362.999 163.508 362.723C163.09 362.445 162.764 362.053 162.528 361.547C162.292 361.038 162.174 360.438 162.174 359.744C162.174 359.057 162.292 358.46 162.528 357.955C162.764 357.449 163.092 357.058 163.512 356.783C163.933 356.507 164.419 356.369 164.97 356.369C165.396 356.369 165.732 356.44 165.98 356.582C166.23 356.722 166.42 356.881 166.551 357.06C166.684 357.236 166.788 357.381 166.862 357.494H166.947V354.273H167.953V363H166.981V361.994H166.862C166.788 362.114 166.683 362.264 166.546 362.446C166.41 362.625 166.215 362.786 165.963 362.928C165.71 363.067 165.373 363.136 164.953 363.136ZM165.089 362.233C165.492 362.233 165.833 362.128 166.112 361.918C166.39 361.705 166.602 361.411 166.747 361.036C166.892 360.658 166.964 360.222 166.964 359.727C166.964 359.239 166.893 358.811 166.751 358.445C166.609 358.075 166.399 357.788 166.12 357.584C165.842 357.376 165.498 357.273 165.089 357.273C164.663 357.273 164.308 357.382 164.024 357.601C163.742 357.817 163.531 358.111 163.389 358.483C163.249 358.852 163.18 359.267 163.18 359.727C163.18 360.193 163.251 360.616 163.393 360.997C163.538 361.375 163.751 361.676 164.032 361.901C164.316 362.122 164.669 362.233 165.089 362.233ZM170.582 365.455C170.411 365.455 170.259 365.44 170.126 365.412C169.992 365.386 169.9 365.361 169.849 365.335L170.105 364.449C170.349 364.511 170.565 364.534 170.752 364.517C170.94 364.5 171.106 364.416 171.251 364.266C171.399 364.118 171.534 363.878 171.656 363.545L171.843 363.034L169.423 356.455H170.514L172.32 361.67H172.389L174.195 356.455H175.286L172.508 363.955C172.383 364.293 172.228 364.572 172.044 364.794C171.859 365.018 171.644 365.185 171.4 365.293C171.159 365.401 170.886 365.455 170.582 365.455ZM180.994 359.062V363H179.989V354.273H180.994V357.477H181.08C181.233 357.139 181.463 356.871 181.77 356.672C182.08 356.47 182.492 356.369 183.006 356.369C183.452 356.369 183.843 356.459 184.178 356.638C184.513 356.814 184.773 357.085 184.958 357.452C185.145 357.815 185.239 358.278 185.239 358.841V363H184.233V358.909C184.233 358.389 184.098 357.987 183.828 357.703C183.561 357.416 183.191 357.273 182.716 357.273C182.387 357.273 182.091 357.342 181.83 357.482C181.571 357.621 181.367 357.824 181.216 358.091C181.068 358.358 180.994 358.682 180.994 359.062ZM189.005 363.153C188.59 363.153 188.214 363.075 187.876 362.919C187.537 362.76 187.269 362.531 187.07 362.233C186.871 361.932 186.772 361.568 186.772 361.142C186.772 360.767 186.846 360.463 186.993 360.23C187.141 359.994 187.339 359.81 187.586 359.676C187.833 359.543 188.106 359.443 188.404 359.378C188.705 359.31 189.008 359.256 189.312 359.216C189.709 359.165 190.032 359.126 190.279 359.101C190.529 359.072 190.711 359.026 190.824 358.96C190.941 358.895 190.999 358.781 190.999 358.619V358.585C190.999 358.165 190.884 357.838 190.654 357.605C190.427 357.372 190.081 357.256 189.618 357.256C189.138 357.256 188.762 357.361 188.489 357.571C188.216 357.781 188.025 358.006 187.914 358.244L186.959 357.903C187.13 357.506 187.357 357.196 187.641 356.974C187.928 356.75 188.241 356.594 188.579 356.506C188.92 356.415 189.255 356.369 189.584 356.369C189.795 356.369 190.036 356.395 190.309 356.446C190.584 356.494 190.85 356.595 191.106 356.749C191.364 356.902 191.579 357.134 191.749 357.443C191.92 357.753 192.005 358.168 192.005 358.688V363H190.999V362.114H190.948C190.88 362.256 190.766 362.408 190.607 362.57C190.448 362.732 190.236 362.869 189.972 362.983C189.708 363.097 189.385 363.153 189.005 363.153ZM189.158 362.25C189.556 362.25 189.891 362.172 190.164 362.016C190.439 361.859 190.647 361.658 190.786 361.411C190.928 361.163 190.999 360.903 190.999 360.631V359.71C190.956 359.761 190.863 359.808 190.718 359.851C190.576 359.891 190.411 359.926 190.224 359.957C190.039 359.986 189.858 360.011 189.682 360.034C189.509 360.054 189.368 360.071 189.26 360.085C188.999 360.119 188.755 360.175 188.528 360.251C188.303 360.325 188.121 360.437 187.982 360.588C187.846 360.736 187.778 360.937 187.778 361.193C187.778 361.543 187.907 361.807 188.165 361.986C188.427 362.162 188.758 362.25 189.158 362.25ZM198.958 356.455L196.538 363H195.515L193.095 356.455H194.186L195.992 361.67H196.061L197.867 356.455H198.958ZM202.796 363.136C202.165 363.136 201.621 362.997 201.164 362.719C200.709 362.438 200.358 362.045 200.111 361.543C199.867 361.037 199.744 360.449 199.744 359.778C199.744 359.108 199.867 358.517 200.111 358.006C200.358 357.491 200.702 357.091 201.142 356.804C201.585 356.514 202.102 356.369 202.693 356.369C203.034 356.369 203.371 356.426 203.703 356.54C204.036 356.653 204.338 356.838 204.611 357.094C204.884 357.347 205.101 357.682 205.263 358.099C205.425 358.517 205.506 359.031 205.506 359.642V360.068H200.46V359.199H204.483C204.483 358.83 204.409 358.5 204.262 358.21C204.117 357.92 203.909 357.692 203.639 357.524C203.372 357.357 203.057 357.273 202.693 357.273C202.293 357.273 201.946 357.372 201.654 357.571C201.364 357.767 201.141 358.023 200.985 358.338C200.828 358.653 200.75 358.991 200.75 359.352V359.932C200.75 360.426 200.835 360.845 201.006 361.189C201.179 361.53 201.419 361.79 201.726 361.969C202.033 362.145 202.389 362.233 202.796 362.233C203.06 362.233 203.298 362.196 203.512 362.122C203.727 362.045 203.914 361.932 204.07 361.781C204.226 361.628 204.347 361.437 204.432 361.21L205.404 361.483C205.301 361.812 205.129 362.102 204.888 362.352C204.646 362.599 204.348 362.793 203.993 362.932C203.638 363.068 203.239 363.136 202.796 363.136ZM212.337 363.153C211.922 363.153 211.546 363.075 211.208 362.919C210.869 362.76 210.601 362.531 210.402 362.233C210.203 361.932 210.104 361.568 210.104 361.142C210.104 360.767 210.178 360.463 210.325 360.23C210.473 359.994 210.671 359.81 210.918 359.676C211.165 359.543 211.438 359.443 211.736 359.378C212.037 359.31 212.34 359.256 212.644 359.216C213.041 359.165 213.364 359.126 213.611 359.101C213.861 359.072 214.043 359.026 214.156 358.96C214.273 358.895 214.331 358.781 214.331 358.619V358.585C214.331 358.165 214.216 357.838 213.986 357.605C213.759 357.372 213.414 357.256 212.95 357.256C212.47 357.256 212.094 357.361 211.821 357.571C211.548 357.781 211.357 358.006 211.246 358.244L210.291 357.903C210.462 357.506 210.689 357.196 210.973 356.974C211.26 356.75 211.573 356.594 211.911 356.506C212.252 356.415 212.587 356.369 212.916 356.369C213.127 356.369 213.368 356.395 213.641 356.446C213.916 356.494 214.182 356.595 214.438 356.749C214.696 356.902 214.911 357.134 215.081 357.443C215.252 357.753 215.337 358.168 215.337 358.688V363H214.331V362.114H214.28C214.212 362.256 214.098 362.408 213.939 362.57C213.78 362.732 213.568 362.869 213.304 362.983C213.04 363.097 212.718 363.153 212.337 363.153ZM212.49 362.25C212.888 362.25 213.223 362.172 213.496 362.016C213.771 361.859 213.979 361.658 214.118 361.411C214.26 361.163 214.331 360.903 214.331 360.631V359.71C214.289 359.761 214.195 359.808 214.05 359.851C213.908 359.891 213.743 359.926 213.556 359.957C213.371 359.986 213.191 360.011 213.014 360.034C212.841 360.054 212.7 360.071 212.593 360.085C212.331 360.119 212.087 360.175 211.86 360.251C211.635 360.325 211.453 360.437 211.314 360.588C211.178 360.736 211.11 360.937 211.11 361.193C211.11 361.543 211.239 361.807 211.497 361.986C211.759 362.162 212.09 362.25 212.49 362.25ZM218.178 359.062V363H217.172V356.455H218.144V357.477H218.229C218.383 357.145 218.616 356.878 218.928 356.676C219.241 356.472 219.644 356.369 220.138 356.369C220.581 356.369 220.969 356.46 221.302 356.642C221.634 356.821 221.893 357.094 222.077 357.46C222.262 357.824 222.354 358.284 222.354 358.841V363H221.349V358.909C221.349 358.395 221.215 357.994 220.948 357.707C220.681 357.418 220.314 357.273 219.849 357.273C219.528 357.273 219.241 357.342 218.988 357.482C218.738 357.621 218.54 357.824 218.395 358.091C218.251 358.358 218.178 358.682 218.178 359.062ZM229.493 363.153C229.078 363.153 228.702 363.075 228.364 362.919C228.026 362.76 227.757 362.531 227.558 362.233C227.36 361.932 227.26 361.568 227.26 361.142C227.26 360.767 227.334 360.463 227.482 360.23C227.629 359.994 227.827 359.81 228.074 359.676C228.321 359.543 228.594 359.443 228.892 359.378C229.193 359.31 229.496 359.256 229.8 359.216C230.198 359.165 230.52 359.126 230.767 359.101C231.017 359.072 231.199 359.026 231.313 358.96C231.429 358.895 231.487 358.781 231.487 358.619V358.585C231.487 358.165 231.372 357.838 231.142 357.605C230.915 357.372 230.57 357.256 230.107 357.256C229.627 357.256 229.25 357.361 228.977 357.571C228.705 357.781 228.513 358.006 228.402 358.244L227.448 357.903C227.618 357.506 227.845 357.196 228.129 356.974C228.416 356.75 228.729 356.594 229.067 356.506C229.408 356.415 229.743 356.369 230.073 356.369C230.283 356.369 230.524 356.395 230.797 356.446C231.073 356.494 231.338 356.595 231.594 356.749C231.852 356.902 232.067 357.134 232.237 357.443C232.408 357.753 232.493 358.168 232.493 358.688V363H231.487V362.114H231.436C231.368 362.256 231.254 362.408 231.095 362.57C230.936 362.732 230.725 362.869 230.46 362.983C230.196 363.097 229.874 363.153 229.493 363.153ZM229.646 362.25C230.044 362.25 230.379 362.172 230.652 362.016C230.928 361.859 231.135 361.658 231.274 361.411C231.416 361.163 231.487 360.903 231.487 360.631V359.71C231.445 359.761 231.351 359.808 231.206 359.851C231.064 359.891 230.899 359.926 230.712 359.957C230.527 359.986 230.347 360.011 230.171 360.034C229.997 360.054 229.857 360.071 229.749 360.085C229.487 360.119 229.243 360.175 229.016 360.251C228.791 360.325 228.61 360.437 228.47 360.588C228.334 360.736 228.266 360.937 228.266 361.193C228.266 361.543 228.395 361.807 228.654 361.986C228.915 362.162 229.246 362.25 229.646 362.25ZM236.988 363.136C236.374 363.136 235.846 362.991 235.403 362.702C234.959 362.412 234.618 362.013 234.38 361.504C234.141 360.996 234.022 360.415 234.022 359.761C234.022 359.097 234.144 358.51 234.388 358.001C234.635 357.49 234.979 357.091 235.42 356.804C235.863 356.514 236.38 356.369 236.971 356.369C237.431 356.369 237.846 356.455 238.215 356.625C238.584 356.795 238.887 357.034 239.123 357.341C239.358 357.648 239.505 358.006 239.562 358.415H238.556C238.479 358.116 238.309 357.852 238.045 357.622C237.783 357.389 237.431 357.273 236.988 357.273C236.596 357.273 236.252 357.375 235.956 357.58C235.664 357.781 235.435 358.067 235.27 358.436C235.108 358.803 235.028 359.233 235.028 359.727C235.028 360.233 235.107 360.673 235.266 361.048C235.428 361.423 235.655 361.714 235.948 361.922C236.243 362.129 236.59 362.233 236.988 362.233C237.249 362.233 237.486 362.188 237.699 362.097C237.912 362.006 238.093 361.875 238.241 361.705C238.388 361.534 238.493 361.33 238.556 361.091H239.562C239.505 361.477 239.364 361.825 239.14 362.135C238.918 362.442 238.624 362.686 238.258 362.868C237.894 363.047 237.471 363.136 236.988 363.136ZM243.691 363.136C243.077 363.136 242.549 362.991 242.106 362.702C241.662 362.412 241.322 362.013 241.083 361.504C240.844 360.996 240.725 360.415 240.725 359.761C240.725 359.097 240.847 358.51 241.091 358.001C241.339 357.49 241.682 357.091 242.123 356.804C242.566 356.514 243.083 356.369 243.674 356.369C244.134 356.369 244.549 356.455 244.918 356.625C245.287 356.795 245.59 357.034 245.826 357.341C246.062 357.648 246.208 358.006 246.265 358.415H245.259C245.182 358.116 245.012 357.852 244.748 357.622C244.486 357.389 244.134 357.273 243.691 357.273C243.299 357.273 242.955 357.375 242.66 357.58C242.367 357.781 242.138 358.067 241.974 358.436C241.812 358.803 241.731 359.233 241.731 359.727C241.731 360.233 241.81 360.673 241.969 361.048C242.131 361.423 242.358 361.714 242.651 361.922C242.947 362.129 243.293 362.233 243.691 362.233C243.952 362.233 244.189 362.188 244.403 362.097C244.616 362.006 244.796 361.875 244.944 361.705C245.091 361.534 245.197 361.33 245.259 361.091H246.265C246.208 361.477 246.067 361.825 245.843 362.135C245.621 362.442 245.327 362.686 244.961 362.868C244.597 363.047 244.174 363.136 243.691 363.136ZM250.394 363.136C249.803 363.136 249.285 362.996 248.839 362.714C248.395 362.433 248.049 362.04 247.799 361.534C247.552 361.028 247.428 360.437 247.428 359.761C247.428 359.08 247.552 358.484 247.799 357.976C248.049 357.467 248.395 357.072 248.839 356.791C249.285 356.51 249.803 356.369 250.394 356.369C250.985 356.369 251.502 356.51 251.945 356.791C252.391 357.072 252.738 357.467 252.985 357.976C253.235 358.484 253.36 359.08 253.36 359.761C253.36 360.437 253.235 361.028 252.985 361.534C252.738 362.04 252.391 362.433 251.945 362.714C251.502 362.996 250.985 363.136 250.394 363.136ZM250.394 362.233C250.843 362.233 251.212 362.118 251.502 361.888C251.792 361.658 252.006 361.355 252.145 360.98C252.285 360.605 252.354 360.199 252.354 359.761C252.354 359.324 252.285 358.916 252.145 358.538C252.006 358.161 251.792 357.855 251.502 357.622C251.212 357.389 250.843 357.273 250.394 357.273C249.945 357.273 249.576 357.389 249.286 357.622C248.996 357.855 248.782 358.161 248.643 358.538C248.503 358.916 248.434 359.324 248.434 359.761C248.434 360.199 248.503 360.605 248.643 360.98C248.782 361.355 248.996 361.658 249.286 361.888C249.576 362.118 249.945 362.233 250.394 362.233ZM259.02 360.324V356.455H260.026V363H259.02V361.892H258.952C258.798 362.224 258.56 362.507 258.236 362.74C257.912 362.97 257.503 363.085 257.009 363.085C256.6 363.085 256.236 362.996 255.918 362.817C255.6 362.635 255.35 362.362 255.168 361.999C254.986 361.632 254.895 361.17 254.895 360.614V356.455H255.901V360.545C255.901 361.023 256.034 361.403 256.301 361.688C256.571 361.972 256.915 362.114 257.333 362.114C257.583 362.114 257.837 362.05 258.095 361.922C258.357 361.794 258.575 361.598 258.752 361.334C258.931 361.07 259.02 360.733 259.02 360.324ZM262.873 359.062V363H261.868V356.455H262.839V357.477H262.925C263.078 357.145 263.311 356.878 263.623 356.676C263.936 356.472 264.339 356.369 264.834 356.369C265.277 356.369 265.665 356.46 265.997 356.642C266.329 356.821 266.588 357.094 266.773 357.46C266.957 357.824 267.05 358.284 267.05 358.841V363H266.044V358.909C266.044 358.395 265.91 357.994 265.643 357.707C265.376 357.418 265.01 357.273 264.544 357.273C264.223 357.273 263.936 357.342 263.683 357.482C263.433 357.621 263.236 357.824 263.091 358.091C262.946 358.358 262.873 358.682 262.873 359.062ZM271.734 356.455V357.307H268.342V356.455H271.734ZM269.33 354.886H270.336V361.125C270.336 361.409 270.377 361.622 270.46 361.764C270.545 361.903 270.653 361.997 270.784 362.045C270.917 362.091 271.058 362.114 271.205 362.114C271.316 362.114 271.407 362.108 271.478 362.097C271.549 362.082 271.606 362.071 271.649 362.062L271.853 362.966C271.785 362.991 271.69 363.017 271.568 363.043C271.445 363.071 271.291 363.085 271.103 363.085C270.819 363.085 270.541 363.024 270.268 362.902C269.998 362.78 269.774 362.594 269.595 362.344C269.419 362.094 269.33 361.778 269.33 361.398V354.886ZM274.559 360.545V360.494C274.565 359.952 274.622 359.52 274.73 359.199C274.838 358.878 274.991 358.618 275.19 358.419C275.389 358.22 275.627 358.037 275.906 357.869C276.073 357.767 276.224 357.646 276.357 357.507C276.491 357.365 276.596 357.202 276.673 357.017C276.752 356.832 276.792 356.628 276.792 356.403C276.792 356.125 276.727 355.884 276.596 355.679C276.465 355.474 276.291 355.317 276.072 355.206C275.853 355.095 275.61 355.04 275.343 355.04C275.11 355.04 274.886 355.088 274.67 355.185C274.454 355.281 274.274 355.433 274.129 355.641C273.984 355.848 273.9 356.119 273.877 356.455H272.803C272.826 355.972 272.951 355.558 273.178 355.214C273.409 354.871 273.711 354.608 274.086 354.426C274.464 354.244 274.883 354.153 275.343 354.153C275.843 354.153 276.278 354.253 276.647 354.452C277.019 354.651 277.306 354.923 277.508 355.27C277.713 355.616 277.815 356.011 277.815 356.455C277.815 356.767 277.767 357.05 277.67 357.303C277.576 357.555 277.44 357.781 277.261 357.98C277.085 358.179 276.872 358.355 276.622 358.509C276.372 358.665 276.171 358.83 276.021 359.003C275.87 359.173 275.761 359.376 275.693 359.612C275.624 359.848 275.588 360.142 275.582 360.494V360.545H274.559ZM275.105 363.068C274.894 363.068 274.714 362.993 274.563 362.842C274.413 362.692 274.338 362.511 274.338 362.301C274.338 362.091 274.413 361.911 274.563 361.76C274.714 361.609 274.894 361.534 275.105 361.534C275.315 361.534 275.495 361.609 275.646 361.76C275.796 361.911 275.872 362.091 275.872 362.301C275.872 362.44 275.836 362.568 275.765 362.685C275.697 362.801 275.605 362.895 275.488 362.966C275.374 363.034 275.247 363.068 275.105 363.068Z" fill="#666666"/>
<path d="M288.206 363V352.818H289.743V361.678H294.356V363H288.206ZM299.206 363.154C298.49 363.154 297.865 362.99 297.332 362.662C296.798 362.334 296.384 361.875 296.089 361.285C295.794 360.695 295.646 360.005 295.646 359.217C295.646 358.424 295.794 357.732 296.089 357.138C296.384 356.545 296.798 356.085 297.332 355.756C297.865 355.428 298.49 355.264 299.206 355.264C299.922 355.264 300.547 355.428 301.08 355.756C301.614 356.085 302.028 356.545 302.323 357.138C302.618 357.732 302.766 358.424 302.766 359.217C302.766 360.005 302.618 360.695 302.323 361.285C302.028 361.875 301.614 362.334 301.08 362.662C300.547 362.99 299.922 363.154 299.206 363.154ZM299.211 361.906C299.675 361.906 300.06 361.784 300.365 361.538C300.669 361.293 300.895 360.967 301.041 360.559C301.19 360.151 301.264 359.702 301.264 359.212C301.264 358.724 301.19 358.277 301.041 357.869C300.895 357.458 300.669 357.129 300.365 356.88C300.06 356.631 299.675 356.507 299.211 356.507C298.744 356.507 298.356 356.631 298.048 356.88C297.743 357.129 297.516 357.458 297.367 357.869C297.221 358.277 297.148 358.724 297.148 359.212C297.148 359.702 297.221 360.151 297.367 360.559C297.516 360.967 297.743 361.293 298.048 361.538C298.356 361.784 298.744 361.906 299.211 361.906ZM307.627 366.023C307.02 366.023 306.498 365.943 306.061 365.784C305.627 365.625 305.272 365.415 304.997 365.153C304.722 364.891 304.516 364.604 304.38 364.293L305.658 363.766C305.748 363.911 305.867 364.066 306.016 364.228C306.168 364.394 306.374 364.535 306.632 364.651C306.894 364.767 307.231 364.825 307.642 364.825C308.205 364.825 308.671 364.687 309.039 364.412C309.407 364.14 309.591 363.706 309.591 363.109V361.608H309.496C309.407 361.77 309.277 361.951 309.108 362.15C308.943 362.349 308.714 362.521 308.422 362.667C308.131 362.813 307.751 362.886 307.284 362.886C306.681 362.886 306.137 362.745 305.653 362.463C305.172 362.178 304.791 361.759 304.51 361.205C304.231 360.648 304.092 359.964 304.092 359.152C304.092 358.34 304.23 357.644 304.505 357.064C304.783 356.484 305.164 356.04 305.648 355.732C306.132 355.42 306.681 355.264 307.294 355.264C307.768 355.264 308.15 355.344 308.442 355.503C308.734 355.659 308.961 355.841 309.123 356.05C309.289 356.259 309.417 356.442 309.506 356.602H309.615V355.364H311.072V363.169C311.072 363.825 310.92 364.364 310.615 364.785C310.31 365.206 309.897 365.517 309.377 365.719C308.86 365.922 308.276 366.023 307.627 366.023ZM307.612 361.653C308.039 361.653 308.401 361.553 308.696 361.354C308.994 361.152 309.219 360.864 309.372 360.489C309.528 360.112 309.605 359.659 309.605 359.132C309.605 358.618 309.529 358.166 309.377 357.775C309.224 357.384 309.001 357.079 308.706 356.86C308.411 356.638 308.046 356.527 307.612 356.527C307.164 356.527 306.792 356.643 306.493 356.875C306.195 357.104 305.97 357.415 305.817 357.81C305.668 358.204 305.593 358.645 305.593 359.132C305.593 359.633 305.67 360.072 305.822 360.45C305.975 360.827 306.2 361.122 306.498 361.335C306.8 361.547 307.171 361.653 307.612 361.653ZM318.426 352.818V363H316.89V352.818H318.426ZM322.031 358.466V363H320.544V355.364H321.971V356.607H322.066C322.241 356.202 322.516 355.877 322.891 355.632C323.269 355.387 323.744 355.264 324.318 355.264C324.838 355.264 325.294 355.374 325.685 355.592C326.076 355.808 326.379 356.129 326.595 356.557C326.81 356.984 326.918 357.513 326.918 358.143V363H325.431V358.322C325.431 357.768 325.287 357.336 324.999 357.024C324.71 356.709 324.314 356.552 323.811 356.552C323.466 356.552 323.159 356.626 322.891 356.776C322.626 356.925 322.415 357.143 322.259 357.432C322.107 357.717 322.031 358.062 322.031 358.466Z" fill="#141414"/>
<path d="M287.088 366.5H327.907V367.455H287.088V366.5Z" fill="#141414"/>
</svg>
