<svg preserveAspectRatio="none" width="100%" height="100%" overflow="visible" style="display: block;" viewBox="0 0 13.9857 10.6143" fill="none" xmlns="http://www.w3.org/2000/svg">
<path id="Vector" d="M13.5776 1.20969L4.94717 10.1995C4.89707 10.2517 4.83758 10.2932 4.7721 10.3215C4.70661 10.3497 4.63642 10.3643 4.56554 10.3643C4.49465 10.3643 4.42446 10.3497 4.35898 10.3215C4.29349 10.2932 4.234 10.2517 4.18391 10.1995L0.408076 6.26646C0.306862 6.16103 0.25 6.01804 0.25 5.86894C0.25 5.71984 0.306862 5.57685 0.408076 5.47142C0.50929 5.366 0.646566 5.30677 0.789705 5.30677C0.932843 5.30677 1.07012 5.366 1.17133 5.47142L4.56554 9.00765L12.8144 0.414657C12.9156 0.309229 13.0529 0.25 13.196 0.25C13.3392 0.25 13.4764 0.309229 13.5776 0.414657C13.6789 0.520085 13.7357 0.663077 13.7357 0.812175C13.7357 0.961274 13.6789 1.10427 13.5776 1.20969Z" fill="var(--fill-0, #0A0A0A)" stroke="var(--stroke-0, #0A0A0A)" stroke-width="0.5"/>
</svg>
