<svg preserveAspectRatio="none" width="100%" height="100%" overflow="visible" style="display: block;" viewBox="0 0 24 24" fill="none" xmlns="http://www.w3.org/2000/svg">
<g id="Star">
<path id="Union" d="M15.4815 7.17538C15.6232 7.47724 15.9061 7.68859 16.2357 7.73895L22.0754 8.63107C22.88 8.75399 23.2085 9.73538 22.6401 10.318L18.3517 14.7131C18.1301 14.9403 18.0294 15.2593 18.0805 15.5725L19.0846 21.7255C19.219 22.5494 18.3445 23.1656 17.6139 22.7618L12.483 19.9258C12.182 19.7594 11.8165 19.7594 11.5155 19.9258L6.38543 22.7617C5.65488 23.1656 4.78031 22.5495 4.91466 21.7256L5.91804 15.5725C5.96912 15.2592 5.86847 14.9403 5.64682 14.7132L1.35843 10.318C0.789995 9.7354 1.11855 8.754 1.92318 8.6311L7.76373 7.73895C8.09341 7.68859 8.37629 7.4772 8.51798 7.17529L11.0941 1.68648C11.454 0.919695 12.5446 0.919639 12.9046 1.68639L15.4815 7.17538Z" fill="var(--fill-0, #F4A316)"/>
</g>
</svg>
