<svg preserveAspectRatio="none" width="100%" height="100%" overflow="visible" style="display: block;" viewBox="0 0 8 6" fill="none" xmlns="http://www.w3.org/2000/svg">
<path id="Vector" d="M7.90623 0.56931L2.78645 5.90225C2.75674 5.93324 2.72144 5.95782 2.6826 5.97459C2.64375 5.99137 2.60211 6 2.56006 6C2.51801 6 2.47637 5.99137 2.43753 5.97459C2.39868 5.95782 2.36339 5.93324 2.33367 5.90225L0.0937737 3.56909C0.0337314 3.50654 0 3.42172 0 3.33327C0 3.24482 0.0337314 3.16 0.0937737 3.09745C0.153816 3.03491 0.235251 2.99978 0.320164 2.99978C0.405076 2.99978 0.486511 3.03491 0.546554 3.09745L2.56006 5.19521L7.45345 0.0976779C7.51349 0.0351357 7.59492 -6.58989e-10 7.67984 0C7.76475 6.5899e-10 7.84618 0.0351357 7.90623 0.0976779C7.96627 0.16022 8 0.245046 8 0.333494C8 0.421942 7.96627 0.506767 7.90623 0.56931Z" fill="var(--fill-0, #0A0A0A)"/>
</svg>
