<svg preserveAspectRatio="none" width="100%" height="100%" overflow="visible" style="display: block;" viewBox="0 0 4.12619 8.64453" fill="none" xmlns="http://www.w3.org/2000/svg">
<path id="Vector" d="M4.01531 0.728846C4.05073 0.687605 4.07842 0.639092 4.0968 0.586077C4.11518 0.533061 4.12389 0.476582 4.12243 0.419863C4.12097 0.363144 4.10938 0.307296 4.0883 0.255509C4.06723 0.203721 4.03709 0.157008 3.99961 0.118036C3.96212 0.0790644 3.91803 0.0485973 3.86985 0.0283742C3.82166 0.0081512 3.77033 -0.00143171 3.71878 0.00017279C3.66723 0.00177729 3.61647 0.0145377 3.56941 0.0377255C3.52234 0.0609132 3.47988 0.0940742 3.44446 0.135315L0.107316 4.02307C0.0383993 4.10328 0 4.20946 0 4.31984C0 4.43021 0.0383993 4.5364 0.107316 4.6166L3.44446 8.50479C3.47965 8.54694 3.52209 8.58097 3.56934 8.60491C3.61658 8.62885 3.66767 8.64223 3.71965 8.64426C3.77163 8.64629 3.82345 8.63694 3.87212 8.61675C3.92079 8.59655 3.96532 8.56592 4.00314 8.52663C4.04095 8.48734 4.0713 8.44018 4.09241 8.38788C4.11352 8.33557 4.12497 8.27918 4.1261 8.22196C4.12723 8.16475 4.11802 8.10786 4.099 8.0546C4.07998 8.00133 4.05154 7.95276 4.01531 7.91169L0.932572 4.31984L4.01531 0.728846Z" fill="var(--fill-0, #130E67)"/>
</svg>
